<mxfile host="Electron" agent="Mozilla/5.0 (Windows NT 10.0; Win64; x64) AppleWebKit/537.36 (KHTML, like Gecko) draw.io/26.0.4 Chrome/128.0.6613.186 Electron/32.2.5 Safari/537.36" version="26.0.4">
  <diagram name="Page-1" id="mlW08jw_DRzmtgGFv2RP">
    <mxGraphModel dx="3267" dy="776" grid="1" gridSize="10" guides="1" tooltips="1" connect="1" arrows="1" fold="1" page="1" pageScale="1" pageWidth="1654" pageHeight="1169" math="0" shadow="0">
      <root>
        <mxCell id="0" />
        <mxCell id="1" parent="0" />
        <mxCell id="1XRBwdCvW_AcIVn5Fyq9-1" style="edgeStyle=orthogonalEdgeStyle;rounded=0;orthogonalLoop=1;jettySize=auto;html=1;exitX=0.5;exitY=1;exitDx=0;exitDy=0;entryX=0;entryY=0.5;entryDx=0;entryDy=0;" edge="1" parent="1" source="1XRBwdCvW_AcIVn5Fyq9-2" target="1XRBwdCvW_AcIVn5Fyq9-167">
          <mxGeometry relative="1" as="geometry" />
        </mxCell>
        <mxCell id="1XRBwdCvW_AcIVn5Fyq9-2" value="cndn[53]" style="text;html=1;align=center;verticalAlign=middle;whiteSpace=wrap;rounded=0;" vertex="1" parent="1">
          <mxGeometry x="40" y="20" width="50" height="20" as="geometry" />
        </mxCell>
        <mxCell id="1XRBwdCvW_AcIVn5Fyq9-3" style="edgeStyle=orthogonalEdgeStyle;rounded=0;orthogonalLoop=1;jettySize=auto;html=1;exitX=0.5;exitY=1;exitDx=0;exitDy=0;entryX=0;entryY=0.5;entryDx=0;entryDy=0;" edge="1" parent="1" source="1XRBwdCvW_AcIVn5Fyq9-4" target="1XRBwdCvW_AcIVn5Fyq9-169">
          <mxGeometry relative="1" as="geometry" />
        </mxCell>
        <mxCell id="1XRBwdCvW_AcIVn5Fyq9-4" value="cndn[52]" style="text;html=1;align=center;verticalAlign=middle;whiteSpace=wrap;rounded=0;" vertex="1" parent="1">
          <mxGeometry x="90" y="20" width="50" height="20" as="geometry" />
        </mxCell>
        <mxCell id="1XRBwdCvW_AcIVn5Fyq9-5" style="edgeStyle=orthogonalEdgeStyle;rounded=0;orthogonalLoop=1;jettySize=auto;html=1;exitX=0.5;exitY=1;exitDx=0;exitDy=0;entryX=0;entryY=0.5;entryDx=0;entryDy=0;" edge="1" parent="1" source="1XRBwdCvW_AcIVn5Fyq9-6" target="1XRBwdCvW_AcIVn5Fyq9-217">
          <mxGeometry relative="1" as="geometry" />
        </mxCell>
        <mxCell id="1XRBwdCvW_AcIVn5Fyq9-6" value="cndn[28]" style="text;html=1;align=center;verticalAlign=middle;whiteSpace=wrap;rounded=0;" vertex="1" parent="1">
          <mxGeometry x="1290" y="20" width="50" height="20" as="geometry" />
        </mxCell>
        <mxCell id="1XRBwdCvW_AcIVn5Fyq9-7" style="edgeStyle=orthogonalEdgeStyle;rounded=0;orthogonalLoop=1;jettySize=auto;html=1;exitX=0.5;exitY=1;exitDx=0;exitDy=0;entryX=0;entryY=0.5;entryDx=0;entryDy=0;" edge="1" parent="1" source="1XRBwdCvW_AcIVn5Fyq9-8" target="1XRBwdCvW_AcIVn5Fyq9-219">
          <mxGeometry relative="1" as="geometry" />
        </mxCell>
        <mxCell id="1XRBwdCvW_AcIVn5Fyq9-8" value="cndn[54]" style="text;html=1;align=center;verticalAlign=middle;whiteSpace=wrap;rounded=0;" vertex="1" parent="1">
          <mxGeometry x="-10" y="20" width="50" height="20" as="geometry" />
        </mxCell>
        <mxCell id="1XRBwdCvW_AcIVn5Fyq9-9" style="edgeStyle=orthogonalEdgeStyle;rounded=0;orthogonalLoop=1;jettySize=auto;html=1;exitX=0.5;exitY=1;exitDx=0;exitDy=0;entryX=0;entryY=0.5;entryDx=0;entryDy=0;" edge="1" parent="1" source="1XRBwdCvW_AcIVn5Fyq9-10" target="1XRBwdCvW_AcIVn5Fyq9-215">
          <mxGeometry relative="1" as="geometry" />
        </mxCell>
        <mxCell id="1XRBwdCvW_AcIVn5Fyq9-10" value="cndn[29]" style="text;html=1;align=center;verticalAlign=middle;whiteSpace=wrap;rounded=0;" vertex="1" parent="1">
          <mxGeometry x="1240" y="20" width="50" height="20" as="geometry" />
        </mxCell>
        <mxCell id="1XRBwdCvW_AcIVn5Fyq9-11" style="edgeStyle=orthogonalEdgeStyle;rounded=0;orthogonalLoop=1;jettySize=auto;html=1;exitX=0.5;exitY=1;exitDx=0;exitDy=0;entryX=0;entryY=0.5;entryDx=0;entryDy=0;" edge="1" parent="1" source="1XRBwdCvW_AcIVn5Fyq9-12" target="1XRBwdCvW_AcIVn5Fyq9-209">
          <mxGeometry relative="1" as="geometry" />
        </mxCell>
        <mxCell id="1XRBwdCvW_AcIVn5Fyq9-12" value="cndn[30]" style="text;html=1;align=center;verticalAlign=middle;whiteSpace=wrap;rounded=0;" vertex="1" parent="1">
          <mxGeometry x="1190" y="20" width="50" height="20" as="geometry" />
        </mxCell>
        <mxCell id="1XRBwdCvW_AcIVn5Fyq9-13" style="edgeStyle=orthogonalEdgeStyle;rounded=0;orthogonalLoop=1;jettySize=auto;html=1;exitX=0.5;exitY=1;exitDx=0;exitDy=0;entryX=0;entryY=0.5;entryDx=0;entryDy=0;" edge="1" parent="1" source="1XRBwdCvW_AcIVn5Fyq9-14" target="1XRBwdCvW_AcIVn5Fyq9-211">
          <mxGeometry relative="1" as="geometry" />
        </mxCell>
        <mxCell id="1XRBwdCvW_AcIVn5Fyq9-14" value="cndn[31]" style="text;html=1;align=center;verticalAlign=middle;whiteSpace=wrap;rounded=0;" vertex="1" parent="1">
          <mxGeometry x="1140" y="20" width="50" height="20" as="geometry" />
        </mxCell>
        <mxCell id="1XRBwdCvW_AcIVn5Fyq9-15" style="edgeStyle=orthogonalEdgeStyle;rounded=0;orthogonalLoop=1;jettySize=auto;html=1;exitX=0.5;exitY=1;exitDx=0;exitDy=0;entryX=0;entryY=0.5;entryDx=0;entryDy=0;" edge="1" parent="1" source="1XRBwdCvW_AcIVn5Fyq9-16" target="1XRBwdCvW_AcIVn5Fyq9-213">
          <mxGeometry relative="1" as="geometry" />
        </mxCell>
        <mxCell id="1XRBwdCvW_AcIVn5Fyq9-16" value="cndn[32]" style="text;html=1;align=center;verticalAlign=middle;whiteSpace=wrap;rounded=0;" vertex="1" parent="1">
          <mxGeometry x="1090" y="20" width="50" height="20" as="geometry" />
        </mxCell>
        <mxCell id="1XRBwdCvW_AcIVn5Fyq9-17" style="edgeStyle=orthogonalEdgeStyle;rounded=0;orthogonalLoop=1;jettySize=auto;html=1;exitX=0.5;exitY=1;exitDx=0;exitDy=0;entryX=0;entryY=0.5;entryDx=0;entryDy=0;" edge="1" parent="1" source="1XRBwdCvW_AcIVn5Fyq9-18" target="1XRBwdCvW_AcIVn5Fyq9-203">
          <mxGeometry relative="1" as="geometry" />
        </mxCell>
        <mxCell id="1XRBwdCvW_AcIVn5Fyq9-18" value="cndn[33]" style="text;html=1;align=center;verticalAlign=middle;whiteSpace=wrap;rounded=0;" vertex="1" parent="1">
          <mxGeometry x="1040" y="20" width="50" height="20" as="geometry" />
        </mxCell>
        <mxCell id="1XRBwdCvW_AcIVn5Fyq9-19" style="edgeStyle=orthogonalEdgeStyle;rounded=0;orthogonalLoop=1;jettySize=auto;html=1;exitX=0.5;exitY=1;exitDx=0;exitDy=0;entryX=0;entryY=0.5;entryDx=0;entryDy=0;" edge="1" parent="1" source="1XRBwdCvW_AcIVn5Fyq9-20" target="1XRBwdCvW_AcIVn5Fyq9-205">
          <mxGeometry relative="1" as="geometry" />
        </mxCell>
        <mxCell id="1XRBwdCvW_AcIVn5Fyq9-20" value="cndn[34]" style="text;html=1;align=center;verticalAlign=middle;whiteSpace=wrap;rounded=0;" vertex="1" parent="1">
          <mxGeometry x="990" y="20" width="50" height="20" as="geometry" />
        </mxCell>
        <mxCell id="1XRBwdCvW_AcIVn5Fyq9-21" style="edgeStyle=orthogonalEdgeStyle;rounded=0;orthogonalLoop=1;jettySize=auto;html=1;exitX=0.5;exitY=1;exitDx=0;exitDy=0;entryX=0;entryY=0.5;entryDx=0;entryDy=0;" edge="1" parent="1" source="1XRBwdCvW_AcIVn5Fyq9-22" target="1XRBwdCvW_AcIVn5Fyq9-207">
          <mxGeometry relative="1" as="geometry" />
        </mxCell>
        <mxCell id="1XRBwdCvW_AcIVn5Fyq9-22" value="cndn[35]" style="text;html=1;align=center;verticalAlign=middle;whiteSpace=wrap;rounded=0;" vertex="1" parent="1">
          <mxGeometry x="940" y="20" width="50" height="20" as="geometry" />
        </mxCell>
        <mxCell id="1XRBwdCvW_AcIVn5Fyq9-23" style="edgeStyle=orthogonalEdgeStyle;rounded=0;orthogonalLoop=1;jettySize=auto;html=1;exitX=0.5;exitY=1;exitDx=0;exitDy=0;entryX=0;entryY=0.5;entryDx=0;entryDy=0;" edge="1" parent="1" source="1XRBwdCvW_AcIVn5Fyq9-24" target="1XRBwdCvW_AcIVn5Fyq9-199">
          <mxGeometry relative="1" as="geometry" />
        </mxCell>
        <mxCell id="1XRBwdCvW_AcIVn5Fyq9-24" value="cndn[36]" style="text;html=1;align=center;verticalAlign=middle;whiteSpace=wrap;rounded=0;" vertex="1" parent="1">
          <mxGeometry x="890" y="20" width="50" height="20" as="geometry" />
        </mxCell>
        <mxCell id="1XRBwdCvW_AcIVn5Fyq9-25" style="edgeStyle=orthogonalEdgeStyle;rounded=0;orthogonalLoop=1;jettySize=auto;html=1;exitX=0.5;exitY=1;exitDx=0;exitDy=0;entryX=0;entryY=0.5;entryDx=0;entryDy=0;" edge="1" parent="1" source="1XRBwdCvW_AcIVn5Fyq9-26" target="1XRBwdCvW_AcIVn5Fyq9-197">
          <mxGeometry relative="1" as="geometry" />
        </mxCell>
        <mxCell id="1XRBwdCvW_AcIVn5Fyq9-26" value="cndn[37]" style="text;html=1;align=center;verticalAlign=middle;whiteSpace=wrap;rounded=0;" vertex="1" parent="1">
          <mxGeometry x="840" y="20" width="50" height="20" as="geometry" />
        </mxCell>
        <mxCell id="1XRBwdCvW_AcIVn5Fyq9-27" style="edgeStyle=orthogonalEdgeStyle;rounded=0;orthogonalLoop=1;jettySize=auto;html=1;exitX=0.5;exitY=1;exitDx=0;exitDy=0;entryX=0;entryY=0.5;entryDx=0;entryDy=0;" edge="1" parent="1" source="1XRBwdCvW_AcIVn5Fyq9-28" target="1XRBwdCvW_AcIVn5Fyq9-195">
          <mxGeometry relative="1" as="geometry" />
        </mxCell>
        <mxCell id="1XRBwdCvW_AcIVn5Fyq9-28" value="cndn[38]" style="text;html=1;align=center;verticalAlign=middle;whiteSpace=wrap;rounded=0;" vertex="1" parent="1">
          <mxGeometry x="790" y="20" width="50" height="20" as="geometry" />
        </mxCell>
        <mxCell id="1XRBwdCvW_AcIVn5Fyq9-29" style="edgeStyle=orthogonalEdgeStyle;rounded=0;orthogonalLoop=1;jettySize=auto;html=1;exitX=0.5;exitY=1;exitDx=0;exitDy=0;entryX=0;entryY=0.5;entryDx=0;entryDy=0;" edge="1" parent="1" source="1XRBwdCvW_AcIVn5Fyq9-30" target="1XRBwdCvW_AcIVn5Fyq9-201">
          <mxGeometry relative="1" as="geometry" />
        </mxCell>
        <mxCell id="1XRBwdCvW_AcIVn5Fyq9-30" value="cndn[39]" style="text;html=1;align=center;verticalAlign=middle;whiteSpace=wrap;rounded=0;" vertex="1" parent="1">
          <mxGeometry x="740" y="20" width="50" height="20" as="geometry" />
        </mxCell>
        <mxCell id="1XRBwdCvW_AcIVn5Fyq9-31" style="edgeStyle=orthogonalEdgeStyle;rounded=0;orthogonalLoop=1;jettySize=auto;html=1;exitX=0.5;exitY=1;exitDx=0;exitDy=0;entryX=0;entryY=0.5;entryDx=0;entryDy=0;" edge="1" parent="1" source="1XRBwdCvW_AcIVn5Fyq9-32" target="1XRBwdCvW_AcIVn5Fyq9-193">
          <mxGeometry relative="1" as="geometry" />
        </mxCell>
        <mxCell id="1XRBwdCvW_AcIVn5Fyq9-32" value="cndn[40]" style="text;html=1;align=center;verticalAlign=middle;whiteSpace=wrap;rounded=0;" vertex="1" parent="1">
          <mxGeometry x="690" y="20" width="50" height="20" as="geometry" />
        </mxCell>
        <mxCell id="1XRBwdCvW_AcIVn5Fyq9-33" style="edgeStyle=orthogonalEdgeStyle;rounded=0;orthogonalLoop=1;jettySize=auto;html=1;exitX=0.5;exitY=1;exitDx=0;exitDy=0;entryX=0;entryY=0.5;entryDx=0;entryDy=0;" edge="1" parent="1" source="1XRBwdCvW_AcIVn5Fyq9-34" target="1XRBwdCvW_AcIVn5Fyq9-191">
          <mxGeometry relative="1" as="geometry" />
        </mxCell>
        <mxCell id="1XRBwdCvW_AcIVn5Fyq9-34" value="cndn[41]" style="text;html=1;align=center;verticalAlign=middle;whiteSpace=wrap;rounded=0;" vertex="1" parent="1">
          <mxGeometry x="640" y="20" width="50" height="20" as="geometry" />
        </mxCell>
        <mxCell id="1XRBwdCvW_AcIVn5Fyq9-35" style="edgeStyle=orthogonalEdgeStyle;rounded=0;orthogonalLoop=1;jettySize=auto;html=1;exitX=0.5;exitY=1;exitDx=0;exitDy=0;entryX=0;entryY=0.5;entryDx=0;entryDy=0;" edge="1" parent="1" source="1XRBwdCvW_AcIVn5Fyq9-36" target="1XRBwdCvW_AcIVn5Fyq9-189">
          <mxGeometry relative="1" as="geometry" />
        </mxCell>
        <mxCell id="1XRBwdCvW_AcIVn5Fyq9-36" value="cndn[42]" style="text;html=1;align=center;verticalAlign=middle;whiteSpace=wrap;rounded=0;" vertex="1" parent="1">
          <mxGeometry x="590" y="20" width="50" height="20" as="geometry" />
        </mxCell>
        <mxCell id="1XRBwdCvW_AcIVn5Fyq9-37" style="edgeStyle=orthogonalEdgeStyle;rounded=0;orthogonalLoop=1;jettySize=auto;html=1;exitX=0.5;exitY=1;exitDx=0;exitDy=0;entryX=0;entryY=0.5;entryDx=0;entryDy=0;" edge="1" parent="1" source="1XRBwdCvW_AcIVn5Fyq9-38" target="1XRBwdCvW_AcIVn5Fyq9-187">
          <mxGeometry relative="1" as="geometry" />
        </mxCell>
        <mxCell id="1XRBwdCvW_AcIVn5Fyq9-38" value="cndn[43]" style="text;html=1;align=center;verticalAlign=middle;whiteSpace=wrap;rounded=0;" vertex="1" parent="1">
          <mxGeometry x="540" y="20" width="50" height="20" as="geometry" />
        </mxCell>
        <mxCell id="1XRBwdCvW_AcIVn5Fyq9-39" style="edgeStyle=orthogonalEdgeStyle;rounded=0;orthogonalLoop=1;jettySize=auto;html=1;exitX=0.5;exitY=1;exitDx=0;exitDy=0;entryX=0;entryY=0.5;entryDx=0;entryDy=0;" edge="1" parent="1" source="1XRBwdCvW_AcIVn5Fyq9-40" target="1XRBwdCvW_AcIVn5Fyq9-185">
          <mxGeometry relative="1" as="geometry" />
        </mxCell>
        <mxCell id="1XRBwdCvW_AcIVn5Fyq9-40" value="cndn[44]" style="text;html=1;align=center;verticalAlign=middle;whiteSpace=wrap;rounded=0;" vertex="1" parent="1">
          <mxGeometry x="490" y="20" width="50" height="20" as="geometry" />
        </mxCell>
        <mxCell id="1XRBwdCvW_AcIVn5Fyq9-41" style="edgeStyle=orthogonalEdgeStyle;rounded=0;orthogonalLoop=1;jettySize=auto;html=1;exitX=0.5;exitY=1;exitDx=0;exitDy=0;entryX=0;entryY=0.5;entryDx=0;entryDy=0;" edge="1" parent="1" source="1XRBwdCvW_AcIVn5Fyq9-42" target="1XRBwdCvW_AcIVn5Fyq9-183">
          <mxGeometry relative="1" as="geometry" />
        </mxCell>
        <mxCell id="1XRBwdCvW_AcIVn5Fyq9-42" value="cndn[45]" style="text;html=1;align=center;verticalAlign=middle;whiteSpace=wrap;rounded=0;" vertex="1" parent="1">
          <mxGeometry x="440" y="20" width="50" height="20" as="geometry" />
        </mxCell>
        <mxCell id="1XRBwdCvW_AcIVn5Fyq9-43" style="edgeStyle=orthogonalEdgeStyle;rounded=0;orthogonalLoop=1;jettySize=auto;html=1;exitX=0.5;exitY=1;exitDx=0;exitDy=0;entryX=0;entryY=0.5;entryDx=0;entryDy=0;" edge="1" parent="1" source="1XRBwdCvW_AcIVn5Fyq9-44" target="1XRBwdCvW_AcIVn5Fyq9-181">
          <mxGeometry relative="1" as="geometry" />
        </mxCell>
        <mxCell id="1XRBwdCvW_AcIVn5Fyq9-44" value="cndn[46]" style="text;html=1;align=center;verticalAlign=middle;whiteSpace=wrap;rounded=0;" vertex="1" parent="1">
          <mxGeometry x="390" y="20" width="50" height="20" as="geometry" />
        </mxCell>
        <mxCell id="1XRBwdCvW_AcIVn5Fyq9-45" style="edgeStyle=orthogonalEdgeStyle;rounded=0;orthogonalLoop=1;jettySize=auto;html=1;exitX=0.5;exitY=1;exitDx=0;exitDy=0;entryX=0;entryY=0.5;entryDx=0;entryDy=0;" edge="1" parent="1" source="1XRBwdCvW_AcIVn5Fyq9-46" target="1XRBwdCvW_AcIVn5Fyq9-179">
          <mxGeometry relative="1" as="geometry" />
        </mxCell>
        <mxCell id="1XRBwdCvW_AcIVn5Fyq9-46" value="cndn[47]" style="text;html=1;align=center;verticalAlign=middle;whiteSpace=wrap;rounded=0;" vertex="1" parent="1">
          <mxGeometry x="340" y="20" width="50" height="20" as="geometry" />
        </mxCell>
        <mxCell id="1XRBwdCvW_AcIVn5Fyq9-47" style="edgeStyle=orthogonalEdgeStyle;rounded=0;orthogonalLoop=1;jettySize=auto;html=1;exitX=0.5;exitY=1;exitDx=0;exitDy=0;entryX=0;entryY=0.5;entryDx=0;entryDy=0;" edge="1" parent="1" source="1XRBwdCvW_AcIVn5Fyq9-48" target="1XRBwdCvW_AcIVn5Fyq9-177">
          <mxGeometry relative="1" as="geometry" />
        </mxCell>
        <mxCell id="1XRBwdCvW_AcIVn5Fyq9-48" value="cndn[48]" style="text;html=1;align=center;verticalAlign=middle;whiteSpace=wrap;rounded=0;" vertex="1" parent="1">
          <mxGeometry x="290" y="20" width="50" height="20" as="geometry" />
        </mxCell>
        <mxCell id="1XRBwdCvW_AcIVn5Fyq9-49" style="edgeStyle=orthogonalEdgeStyle;rounded=0;orthogonalLoop=1;jettySize=auto;html=1;exitX=0.5;exitY=1;exitDx=0;exitDy=0;entryX=0;entryY=0.5;entryDx=0;entryDy=0;" edge="1" parent="1" source="1XRBwdCvW_AcIVn5Fyq9-50" target="1XRBwdCvW_AcIVn5Fyq9-175">
          <mxGeometry relative="1" as="geometry" />
        </mxCell>
        <mxCell id="1XRBwdCvW_AcIVn5Fyq9-50" value="cndn[49]" style="text;html=1;align=center;verticalAlign=middle;whiteSpace=wrap;rounded=0;" vertex="1" parent="1">
          <mxGeometry x="240" y="20" width="50" height="20" as="geometry" />
        </mxCell>
        <mxCell id="1XRBwdCvW_AcIVn5Fyq9-51" style="edgeStyle=orthogonalEdgeStyle;rounded=0;orthogonalLoop=1;jettySize=auto;html=1;exitX=0.5;exitY=1;exitDx=0;exitDy=0;entryX=0;entryY=0.5;entryDx=0;entryDy=0;" edge="1" parent="1" source="1XRBwdCvW_AcIVn5Fyq9-52" target="1XRBwdCvW_AcIVn5Fyq9-173">
          <mxGeometry relative="1" as="geometry" />
        </mxCell>
        <mxCell id="1XRBwdCvW_AcIVn5Fyq9-52" value="cndn[50]" style="text;html=1;align=center;verticalAlign=middle;whiteSpace=wrap;rounded=0;" vertex="1" parent="1">
          <mxGeometry x="190" y="20" width="50" height="20" as="geometry" />
        </mxCell>
        <mxCell id="1XRBwdCvW_AcIVn5Fyq9-53" style="edgeStyle=orthogonalEdgeStyle;rounded=0;orthogonalLoop=1;jettySize=auto;html=1;exitX=0.5;exitY=1;exitDx=0;exitDy=0;entryX=0;entryY=0.5;entryDx=0;entryDy=0;" edge="1" parent="1" source="1XRBwdCvW_AcIVn5Fyq9-54" target="1XRBwdCvW_AcIVn5Fyq9-171">
          <mxGeometry relative="1" as="geometry" />
        </mxCell>
        <mxCell id="1XRBwdCvW_AcIVn5Fyq9-54" value="cndn[51]" style="text;html=1;align=center;verticalAlign=middle;whiteSpace=wrap;rounded=0;" vertex="1" parent="1">
          <mxGeometry x="140" y="20" width="50" height="20" as="geometry" />
        </mxCell>
        <mxCell id="1XRBwdCvW_AcIVn5Fyq9-59" value="round_key[20]" style="text;html=1;align=center;verticalAlign=middle;whiteSpace=wrap;rounded=0;" vertex="1" parent="1">
          <mxGeometry x="1370" y="150" width="80" height="30" as="geometry" />
        </mxCell>
        <mxCell id="1XRBwdCvW_AcIVn5Fyq9-60" value="round_key[23]" style="text;html=1;align=center;verticalAlign=middle;whiteSpace=wrap;rounded=0;" vertex="1" parent="1">
          <mxGeometry x="1370" y="90" width="80" height="30" as="geometry" />
        </mxCell>
        <mxCell id="1XRBwdCvW_AcIVn5Fyq9-61" value="round_key[21]" style="text;html=1;align=center;verticalAlign=middle;whiteSpace=wrap;rounded=0;" vertex="1" parent="1">
          <mxGeometry x="1370" y="130" width="80" height="30" as="geometry" />
        </mxCell>
        <mxCell id="1XRBwdCvW_AcIVn5Fyq9-62" value="round_key[22]" style="text;html=1;align=center;verticalAlign=middle;whiteSpace=wrap;rounded=0;" vertex="1" parent="1">
          <mxGeometry x="1370" y="110" width="80" height="30" as="geometry" />
        </mxCell>
        <mxCell id="1XRBwdCvW_AcIVn5Fyq9-63" value="round_key[16]" style="text;html=1;align=center;verticalAlign=middle;whiteSpace=wrap;rounded=0;" vertex="1" parent="1">
          <mxGeometry x="1370" y="230" width="80" height="30" as="geometry" />
        </mxCell>
        <mxCell id="1XRBwdCvW_AcIVn5Fyq9-64" value="round_key[18]" style="text;html=1;align=center;verticalAlign=middle;whiteSpace=wrap;rounded=0;" vertex="1" parent="1">
          <mxGeometry x="1370" y="190" width="80" height="30" as="geometry" />
        </mxCell>
        <mxCell id="1XRBwdCvW_AcIVn5Fyq9-65" value="round_key[17]" style="text;html=1;align=center;verticalAlign=middle;whiteSpace=wrap;rounded=0;" vertex="1" parent="1">
          <mxGeometry x="1370" y="210" width="80" height="30" as="geometry" />
        </mxCell>
        <mxCell id="1XRBwdCvW_AcIVn5Fyq9-66" value="round_key[14]" style="text;html=1;align=center;verticalAlign=middle;whiteSpace=wrap;rounded=0;" vertex="1" parent="1">
          <mxGeometry x="1370" y="270" width="80" height="30" as="geometry" />
        </mxCell>
        <mxCell id="1XRBwdCvW_AcIVn5Fyq9-67" value="round_key[15]" style="text;html=1;align=center;verticalAlign=middle;whiteSpace=wrap;rounded=0;" vertex="1" parent="1">
          <mxGeometry x="1370" y="250" width="80" height="30" as="geometry" />
        </mxCell>
        <mxCell id="1XRBwdCvW_AcIVn5Fyq9-68" value="round_key[13]" style="text;html=1;align=center;verticalAlign=middle;whiteSpace=wrap;rounded=0;" vertex="1" parent="1">
          <mxGeometry x="1370" y="290" width="80" height="30" as="geometry" />
        </mxCell>
        <mxCell id="1XRBwdCvW_AcIVn5Fyq9-69" value="round_key[10]" style="text;html=1;align=center;verticalAlign=middle;whiteSpace=wrap;rounded=0;" vertex="1" parent="1">
          <mxGeometry x="1370" y="350" width="80" height="30" as="geometry" />
        </mxCell>
        <mxCell id="1XRBwdCvW_AcIVn5Fyq9-70" value="round_key[11]" style="text;html=1;align=center;verticalAlign=middle;whiteSpace=wrap;rounded=0;" vertex="1" parent="1">
          <mxGeometry x="1370" y="330" width="80" height="30" as="geometry" />
        </mxCell>
        <mxCell id="1XRBwdCvW_AcIVn5Fyq9-71" value="round_key[12]" style="text;html=1;align=center;verticalAlign=middle;whiteSpace=wrap;rounded=0;" vertex="1" parent="1">
          <mxGeometry x="1370" y="310" width="80" height="30" as="geometry" />
        </mxCell>
        <mxCell id="1XRBwdCvW_AcIVn5Fyq9-72" value="round_key[8]" style="text;html=1;align=center;verticalAlign=middle;whiteSpace=wrap;rounded=0;" vertex="1" parent="1">
          <mxGeometry x="1370" y="390" width="80" height="30" as="geometry" />
        </mxCell>
        <mxCell id="1XRBwdCvW_AcIVn5Fyq9-73" value="round_key[9]" style="text;html=1;align=center;verticalAlign=middle;whiteSpace=wrap;rounded=0;" vertex="1" parent="1">
          <mxGeometry x="1370" y="370" width="80" height="30" as="geometry" />
        </mxCell>
        <mxCell id="1XRBwdCvW_AcIVn5Fyq9-74" value="round_key[3]" style="text;html=1;align=center;verticalAlign=middle;whiteSpace=wrap;rounded=0;" vertex="1" parent="1">
          <mxGeometry x="1370" y="490" width="80" height="30" as="geometry" />
        </mxCell>
        <mxCell id="1XRBwdCvW_AcIVn5Fyq9-75" value="round_key[1]" style="text;html=1;align=center;verticalAlign=middle;whiteSpace=wrap;rounded=0;" vertex="1" parent="1">
          <mxGeometry x="1370" y="530" width="80" height="30" as="geometry" />
        </mxCell>
        <mxCell id="1XRBwdCvW_AcIVn5Fyq9-76" value="round_key[2]" style="text;html=1;align=center;verticalAlign=middle;whiteSpace=wrap;rounded=0;" vertex="1" parent="1">
          <mxGeometry x="1370" y="510" width="80" height="30" as="geometry" />
        </mxCell>
        <mxCell id="1XRBwdCvW_AcIVn5Fyq9-77" value="round_key[0]" style="text;html=1;align=center;verticalAlign=middle;whiteSpace=wrap;rounded=0;" vertex="1" parent="1">
          <mxGeometry x="1370" y="550" width="80" height="30" as="geometry" />
        </mxCell>
        <mxCell id="1XRBwdCvW_AcIVn5Fyq9-78" value="round_key[4]" style="text;html=1;align=center;verticalAlign=middle;whiteSpace=wrap;rounded=0;" vertex="1" parent="1">
          <mxGeometry x="1370" y="470" width="80" height="30" as="geometry" />
        </mxCell>
        <mxCell id="1XRBwdCvW_AcIVn5Fyq9-79" value="round_key[5]" style="text;html=1;align=center;verticalAlign=middle;whiteSpace=wrap;rounded=0;" vertex="1" parent="1">
          <mxGeometry x="1370" y="450" width="80" height="30" as="geometry" />
        </mxCell>
        <mxCell id="1XRBwdCvW_AcIVn5Fyq9-80" value="round_key[6]" style="text;html=1;align=center;verticalAlign=middle;whiteSpace=wrap;rounded=0;" vertex="1" parent="1">
          <mxGeometry x="1370" y="430" width="80" height="30" as="geometry" />
        </mxCell>
        <mxCell id="1XRBwdCvW_AcIVn5Fyq9-81" value="round_key[7]" style="text;html=1;align=center;verticalAlign=middle;whiteSpace=wrap;rounded=0;" vertex="1" parent="1">
          <mxGeometry x="1370" y="410" width="80" height="30" as="geometry" />
        </mxCell>
        <mxCell id="1XRBwdCvW_AcIVn5Fyq9-82" value="round_key[19]" style="text;html=1;align=center;verticalAlign=middle;whiteSpace=wrap;rounded=0;" vertex="1" parent="1">
          <mxGeometry x="1370" y="170" width="80" height="30" as="geometry" />
        </mxCell>
        <mxCell id="1XRBwdCvW_AcIVn5Fyq9-83" style="edgeStyle=orthogonalEdgeStyle;rounded=0;orthogonalLoop=1;jettySize=auto;html=1;exitX=0.5;exitY=0;exitDx=0;exitDy=0;entryX=0;entryY=0.5;entryDx=0;entryDy=0;" edge="1" parent="1" source="1XRBwdCvW_AcIVn5Fyq9-84" target="1XRBwdCvW_AcIVn5Fyq9-223">
          <mxGeometry relative="1" as="geometry" />
        </mxCell>
        <mxCell id="1XRBwdCvW_AcIVn5Fyq9-84" value="cndn[25]" style="text;html=1;align=center;verticalAlign=middle;whiteSpace=wrap;rounded=0;" vertex="1" parent="1">
          <mxGeometry x="40" y="640" width="50" height="20" as="geometry" />
        </mxCell>
        <mxCell id="1XRBwdCvW_AcIVn5Fyq9-85" style="edgeStyle=orthogonalEdgeStyle;rounded=0;orthogonalLoop=1;jettySize=auto;html=1;exitX=0.5;exitY=0;exitDx=0;exitDy=0;entryX=0;entryY=0.5;entryDx=0;entryDy=0;" edge="1" parent="1" source="1XRBwdCvW_AcIVn5Fyq9-86" target="1XRBwdCvW_AcIVn5Fyq9-225">
          <mxGeometry relative="1" as="geometry" />
        </mxCell>
        <mxCell id="1XRBwdCvW_AcIVn5Fyq9-86" value="cndn[24]" style="text;html=1;align=center;verticalAlign=middle;whiteSpace=wrap;rounded=0;" vertex="1" parent="1">
          <mxGeometry x="90" y="640" width="50" height="20" as="geometry" />
        </mxCell>
        <mxCell id="1XRBwdCvW_AcIVn5Fyq9-87" style="edgeStyle=orthogonalEdgeStyle;rounded=0;orthogonalLoop=1;jettySize=auto;html=1;exitX=0.5;exitY=0;exitDx=0;exitDy=0;entryX=0;entryY=0.5;entryDx=0;entryDy=0;" edge="1" parent="1" source="1XRBwdCvW_AcIVn5Fyq9-88" target="1XRBwdCvW_AcIVn5Fyq9-273">
          <mxGeometry relative="1" as="geometry" />
        </mxCell>
        <mxCell id="1XRBwdCvW_AcIVn5Fyq9-88" value="cndn[0]" style="text;html=1;align=center;verticalAlign=middle;whiteSpace=wrap;rounded=0;" vertex="1" parent="1">
          <mxGeometry x="1290" y="640" width="50" height="20" as="geometry" />
        </mxCell>
        <mxCell id="1XRBwdCvW_AcIVn5Fyq9-89" style="edgeStyle=orthogonalEdgeStyle;rounded=0;orthogonalLoop=1;jettySize=auto;html=1;exitX=0.5;exitY=0;exitDx=0;exitDy=0;entryX=0;entryY=0.5;entryDx=0;entryDy=0;" edge="1" parent="1" source="1XRBwdCvW_AcIVn5Fyq9-90" target="1XRBwdCvW_AcIVn5Fyq9-221">
          <mxGeometry relative="1" as="geometry" />
        </mxCell>
        <mxCell id="1XRBwdCvW_AcIVn5Fyq9-90" value="cndn[26]" style="text;html=1;align=center;verticalAlign=middle;whiteSpace=wrap;rounded=0;" vertex="1" parent="1">
          <mxGeometry x="-10" y="640" width="50" height="20" as="geometry" />
        </mxCell>
        <mxCell id="1XRBwdCvW_AcIVn5Fyq9-91" style="edgeStyle=orthogonalEdgeStyle;rounded=0;orthogonalLoop=1;jettySize=auto;html=1;exitX=0.5;exitY=0;exitDx=0;exitDy=0;entryX=0;entryY=0.5;entryDx=0;entryDy=0;" edge="1" parent="1" source="1XRBwdCvW_AcIVn5Fyq9-92" target="1XRBwdCvW_AcIVn5Fyq9-271">
          <mxGeometry relative="1" as="geometry" />
        </mxCell>
        <mxCell id="1XRBwdCvW_AcIVn5Fyq9-92" value="cndn[1]" style="text;html=1;align=center;verticalAlign=middle;whiteSpace=wrap;rounded=0;" vertex="1" parent="1">
          <mxGeometry x="1240" y="640" width="50" height="20" as="geometry" />
        </mxCell>
        <mxCell id="1XRBwdCvW_AcIVn5Fyq9-93" style="edgeStyle=orthogonalEdgeStyle;rounded=0;orthogonalLoop=1;jettySize=auto;html=1;exitX=0.5;exitY=0;exitDx=0;exitDy=0;entryX=0;entryY=0.5;entryDx=0;entryDy=0;" edge="1" parent="1" source="1XRBwdCvW_AcIVn5Fyq9-94" target="1XRBwdCvW_AcIVn5Fyq9-265">
          <mxGeometry relative="1" as="geometry" />
        </mxCell>
        <mxCell id="1XRBwdCvW_AcIVn5Fyq9-94" value="cndn[2]" style="text;html=1;align=center;verticalAlign=middle;whiteSpace=wrap;rounded=0;" vertex="1" parent="1">
          <mxGeometry x="1190" y="640" width="50" height="20" as="geometry" />
        </mxCell>
        <mxCell id="1XRBwdCvW_AcIVn5Fyq9-95" style="edgeStyle=orthogonalEdgeStyle;rounded=0;orthogonalLoop=1;jettySize=auto;html=1;exitX=0.5;exitY=0;exitDx=0;exitDy=0;entryX=0;entryY=0.5;entryDx=0;entryDy=0;" edge="1" parent="1" source="1XRBwdCvW_AcIVn5Fyq9-96" target="1XRBwdCvW_AcIVn5Fyq9-267">
          <mxGeometry relative="1" as="geometry" />
        </mxCell>
        <mxCell id="1XRBwdCvW_AcIVn5Fyq9-96" value="cndn[3]" style="text;html=1;align=center;verticalAlign=middle;whiteSpace=wrap;rounded=0;" vertex="1" parent="1">
          <mxGeometry x="1140" y="640" width="50" height="20" as="geometry" />
        </mxCell>
        <mxCell id="1XRBwdCvW_AcIVn5Fyq9-97" style="edgeStyle=orthogonalEdgeStyle;rounded=0;orthogonalLoop=1;jettySize=auto;html=1;exitX=0.5;exitY=0;exitDx=0;exitDy=0;entryX=0;entryY=0.5;entryDx=0;entryDy=0;" edge="1" parent="1" source="1XRBwdCvW_AcIVn5Fyq9-98" target="1XRBwdCvW_AcIVn5Fyq9-269">
          <mxGeometry relative="1" as="geometry" />
        </mxCell>
        <mxCell id="1XRBwdCvW_AcIVn5Fyq9-98" value="cndn[4]" style="text;html=1;align=center;verticalAlign=middle;whiteSpace=wrap;rounded=0;" vertex="1" parent="1">
          <mxGeometry x="1090" y="640" width="50" height="20" as="geometry" />
        </mxCell>
        <mxCell id="1XRBwdCvW_AcIVn5Fyq9-99" style="edgeStyle=orthogonalEdgeStyle;rounded=0;orthogonalLoop=1;jettySize=auto;html=1;exitX=0.5;exitY=0;exitDx=0;exitDy=0;entryX=0;entryY=0.5;entryDx=0;entryDy=0;" edge="1" parent="1" source="1XRBwdCvW_AcIVn5Fyq9-100" target="1XRBwdCvW_AcIVn5Fyq9-259">
          <mxGeometry relative="1" as="geometry" />
        </mxCell>
        <mxCell id="1XRBwdCvW_AcIVn5Fyq9-100" value="cndn[5]" style="text;html=1;align=center;verticalAlign=middle;whiteSpace=wrap;rounded=0;" vertex="1" parent="1">
          <mxGeometry x="1040" y="640" width="50" height="20" as="geometry" />
        </mxCell>
        <mxCell id="1XRBwdCvW_AcIVn5Fyq9-101" style="edgeStyle=orthogonalEdgeStyle;rounded=0;orthogonalLoop=1;jettySize=auto;html=1;exitX=0.5;exitY=0;exitDx=0;exitDy=0;entryX=0;entryY=0.5;entryDx=0;entryDy=0;" edge="1" parent="1" source="1XRBwdCvW_AcIVn5Fyq9-102" target="1XRBwdCvW_AcIVn5Fyq9-261">
          <mxGeometry relative="1" as="geometry" />
        </mxCell>
        <mxCell id="1XRBwdCvW_AcIVn5Fyq9-102" value="cndn[6]" style="text;html=1;align=center;verticalAlign=middle;whiteSpace=wrap;rounded=0;" vertex="1" parent="1">
          <mxGeometry x="990" y="640" width="50" height="20" as="geometry" />
        </mxCell>
        <mxCell id="1XRBwdCvW_AcIVn5Fyq9-103" style="edgeStyle=orthogonalEdgeStyle;rounded=0;orthogonalLoop=1;jettySize=auto;html=1;exitX=0.5;exitY=0;exitDx=0;exitDy=0;entryX=0;entryY=0.5;entryDx=0;entryDy=0;" edge="1" parent="1" source="1XRBwdCvW_AcIVn5Fyq9-104" target="1XRBwdCvW_AcIVn5Fyq9-263">
          <mxGeometry relative="1" as="geometry" />
        </mxCell>
        <mxCell id="1XRBwdCvW_AcIVn5Fyq9-104" value="cndn[7]" style="text;html=1;align=center;verticalAlign=middle;whiteSpace=wrap;rounded=0;" vertex="1" parent="1">
          <mxGeometry x="940" y="640" width="50" height="20" as="geometry" />
        </mxCell>
        <mxCell id="1XRBwdCvW_AcIVn5Fyq9-105" style="edgeStyle=orthogonalEdgeStyle;rounded=0;orthogonalLoop=1;jettySize=auto;html=1;exitX=0.5;exitY=0;exitDx=0;exitDy=0;entryX=0;entryY=0.5;entryDx=0;entryDy=0;" edge="1" parent="1" source="1XRBwdCvW_AcIVn5Fyq9-106" target="1XRBwdCvW_AcIVn5Fyq9-255">
          <mxGeometry relative="1" as="geometry" />
        </mxCell>
        <mxCell id="1XRBwdCvW_AcIVn5Fyq9-106" value="cndn[8]" style="text;html=1;align=center;verticalAlign=middle;whiteSpace=wrap;rounded=0;" vertex="1" parent="1">
          <mxGeometry x="890" y="640" width="50" height="20" as="geometry" />
        </mxCell>
        <mxCell id="1XRBwdCvW_AcIVn5Fyq9-107" style="edgeStyle=orthogonalEdgeStyle;rounded=0;orthogonalLoop=1;jettySize=auto;html=1;exitX=0.5;exitY=0;exitDx=0;exitDy=0;entryX=0;entryY=0.5;entryDx=0;entryDy=0;" edge="1" parent="1" source="1XRBwdCvW_AcIVn5Fyq9-108" target="1XRBwdCvW_AcIVn5Fyq9-253">
          <mxGeometry relative="1" as="geometry" />
        </mxCell>
        <mxCell id="1XRBwdCvW_AcIVn5Fyq9-108" value="cndn[9]" style="text;html=1;align=center;verticalAlign=middle;whiteSpace=wrap;rounded=0;" vertex="1" parent="1">
          <mxGeometry x="840" y="640" width="50" height="20" as="geometry" />
        </mxCell>
        <mxCell id="1XRBwdCvW_AcIVn5Fyq9-109" style="edgeStyle=orthogonalEdgeStyle;rounded=0;orthogonalLoop=1;jettySize=auto;html=1;exitX=0.5;exitY=0;exitDx=0;exitDy=0;entryX=0;entryY=0.5;entryDx=0;entryDy=0;" edge="1" parent="1" source="1XRBwdCvW_AcIVn5Fyq9-110" target="1XRBwdCvW_AcIVn5Fyq9-251">
          <mxGeometry relative="1" as="geometry" />
        </mxCell>
        <mxCell id="1XRBwdCvW_AcIVn5Fyq9-110" value="cndn[10]" style="text;html=1;align=center;verticalAlign=middle;whiteSpace=wrap;rounded=0;" vertex="1" parent="1">
          <mxGeometry x="790" y="640" width="50" height="20" as="geometry" />
        </mxCell>
        <mxCell id="1XRBwdCvW_AcIVn5Fyq9-111" style="edgeStyle=orthogonalEdgeStyle;rounded=0;orthogonalLoop=1;jettySize=auto;html=1;exitX=0.5;exitY=0;exitDx=0;exitDy=0;entryX=0;entryY=0.5;entryDx=0;entryDy=0;" edge="1" parent="1" source="1XRBwdCvW_AcIVn5Fyq9-112" target="1XRBwdCvW_AcIVn5Fyq9-257">
          <mxGeometry relative="1" as="geometry" />
        </mxCell>
        <mxCell id="1XRBwdCvW_AcIVn5Fyq9-112" value="cndn[11]" style="text;html=1;align=center;verticalAlign=middle;whiteSpace=wrap;rounded=0;" vertex="1" parent="1">
          <mxGeometry x="740" y="640" width="50" height="20" as="geometry" />
        </mxCell>
        <mxCell id="1XRBwdCvW_AcIVn5Fyq9-113" style="edgeStyle=orthogonalEdgeStyle;rounded=0;orthogonalLoop=1;jettySize=auto;html=1;exitX=0.5;exitY=0;exitDx=0;exitDy=0;entryX=0;entryY=0.5;entryDx=0;entryDy=0;" edge="1" parent="1" source="1XRBwdCvW_AcIVn5Fyq9-114" target="1XRBwdCvW_AcIVn5Fyq9-249">
          <mxGeometry relative="1" as="geometry" />
        </mxCell>
        <mxCell id="1XRBwdCvW_AcIVn5Fyq9-114" value="cndn[12]" style="text;html=1;align=center;verticalAlign=middle;whiteSpace=wrap;rounded=0;" vertex="1" parent="1">
          <mxGeometry x="690" y="640" width="50" height="20" as="geometry" />
        </mxCell>
        <mxCell id="1XRBwdCvW_AcIVn5Fyq9-115" style="edgeStyle=orthogonalEdgeStyle;rounded=0;orthogonalLoop=1;jettySize=auto;html=1;exitX=0.5;exitY=0;exitDx=0;exitDy=0;entryX=0;entryY=0.5;entryDx=0;entryDy=0;" edge="1" parent="1" source="1XRBwdCvW_AcIVn5Fyq9-116" target="1XRBwdCvW_AcIVn5Fyq9-247">
          <mxGeometry relative="1" as="geometry" />
        </mxCell>
        <mxCell id="1XRBwdCvW_AcIVn5Fyq9-116" value="cndn[13]" style="text;html=1;align=center;verticalAlign=middle;whiteSpace=wrap;rounded=0;" vertex="1" parent="1">
          <mxGeometry x="640" y="640" width="50" height="20" as="geometry" />
        </mxCell>
        <mxCell id="1XRBwdCvW_AcIVn5Fyq9-117" style="edgeStyle=orthogonalEdgeStyle;rounded=0;orthogonalLoop=1;jettySize=auto;html=1;exitX=0.5;exitY=0;exitDx=0;exitDy=0;entryX=0;entryY=0.5;entryDx=0;entryDy=0;" edge="1" parent="1" source="1XRBwdCvW_AcIVn5Fyq9-118" target="1XRBwdCvW_AcIVn5Fyq9-245">
          <mxGeometry relative="1" as="geometry" />
        </mxCell>
        <mxCell id="1XRBwdCvW_AcIVn5Fyq9-118" value="cndn[14]" style="text;html=1;align=center;verticalAlign=middle;whiteSpace=wrap;rounded=0;" vertex="1" parent="1">
          <mxGeometry x="590" y="640" width="50" height="20" as="geometry" />
        </mxCell>
        <mxCell id="1XRBwdCvW_AcIVn5Fyq9-119" style="edgeStyle=orthogonalEdgeStyle;rounded=0;orthogonalLoop=1;jettySize=auto;html=1;exitX=0.5;exitY=0;exitDx=0;exitDy=0;entryX=0;entryY=0.5;entryDx=0;entryDy=0;" edge="1" parent="1" source="1XRBwdCvW_AcIVn5Fyq9-120" target="1XRBwdCvW_AcIVn5Fyq9-243">
          <mxGeometry relative="1" as="geometry" />
        </mxCell>
        <mxCell id="1XRBwdCvW_AcIVn5Fyq9-120" value="cndn[15]" style="text;html=1;align=center;verticalAlign=middle;whiteSpace=wrap;rounded=0;" vertex="1" parent="1">
          <mxGeometry x="540" y="640" width="50" height="20" as="geometry" />
        </mxCell>
        <mxCell id="1XRBwdCvW_AcIVn5Fyq9-121" style="edgeStyle=orthogonalEdgeStyle;rounded=0;orthogonalLoop=1;jettySize=auto;html=1;exitX=0.5;exitY=0;exitDx=0;exitDy=0;entryX=0;entryY=0.5;entryDx=0;entryDy=0;" edge="1" parent="1" source="1XRBwdCvW_AcIVn5Fyq9-122" target="1XRBwdCvW_AcIVn5Fyq9-241">
          <mxGeometry relative="1" as="geometry" />
        </mxCell>
        <mxCell id="1XRBwdCvW_AcIVn5Fyq9-122" value="cndn[16]" style="text;html=1;align=center;verticalAlign=middle;whiteSpace=wrap;rounded=0;" vertex="1" parent="1">
          <mxGeometry x="490" y="640" width="50" height="20" as="geometry" />
        </mxCell>
        <mxCell id="1XRBwdCvW_AcIVn5Fyq9-123" style="edgeStyle=orthogonalEdgeStyle;rounded=0;orthogonalLoop=1;jettySize=auto;html=1;exitX=0.5;exitY=0;exitDx=0;exitDy=0;entryX=0;entryY=0.5;entryDx=0;entryDy=0;" edge="1" parent="1" source="1XRBwdCvW_AcIVn5Fyq9-124" target="1XRBwdCvW_AcIVn5Fyq9-239">
          <mxGeometry relative="1" as="geometry" />
        </mxCell>
        <mxCell id="1XRBwdCvW_AcIVn5Fyq9-124" value="cndn[17]" style="text;html=1;align=center;verticalAlign=middle;whiteSpace=wrap;rounded=0;" vertex="1" parent="1">
          <mxGeometry x="440" y="640" width="50" height="20" as="geometry" />
        </mxCell>
        <mxCell id="1XRBwdCvW_AcIVn5Fyq9-125" style="edgeStyle=orthogonalEdgeStyle;rounded=0;orthogonalLoop=1;jettySize=auto;html=1;exitX=0.5;exitY=0;exitDx=0;exitDy=0;entryX=0;entryY=0.5;entryDx=0;entryDy=0;" edge="1" parent="1" source="1XRBwdCvW_AcIVn5Fyq9-126" target="1XRBwdCvW_AcIVn5Fyq9-237">
          <mxGeometry relative="1" as="geometry" />
        </mxCell>
        <mxCell id="1XRBwdCvW_AcIVn5Fyq9-126" value="cndn[18]" style="text;html=1;align=center;verticalAlign=middle;whiteSpace=wrap;rounded=0;" vertex="1" parent="1">
          <mxGeometry x="390" y="640" width="50" height="20" as="geometry" />
        </mxCell>
        <mxCell id="1XRBwdCvW_AcIVn5Fyq9-127" style="edgeStyle=orthogonalEdgeStyle;rounded=0;orthogonalLoop=1;jettySize=auto;html=1;exitX=0.5;exitY=0;exitDx=0;exitDy=0;entryX=0;entryY=0.5;entryDx=0;entryDy=0;" edge="1" parent="1" source="1XRBwdCvW_AcIVn5Fyq9-128" target="1XRBwdCvW_AcIVn5Fyq9-235">
          <mxGeometry relative="1" as="geometry" />
        </mxCell>
        <mxCell id="1XRBwdCvW_AcIVn5Fyq9-128" value="cndn[19]" style="text;html=1;align=center;verticalAlign=middle;whiteSpace=wrap;rounded=0;" vertex="1" parent="1">
          <mxGeometry x="340" y="640" width="50" height="20" as="geometry" />
        </mxCell>
        <mxCell id="1XRBwdCvW_AcIVn5Fyq9-129" style="edgeStyle=orthogonalEdgeStyle;rounded=0;orthogonalLoop=1;jettySize=auto;html=1;exitX=0.5;exitY=0;exitDx=0;exitDy=0;entryX=0;entryY=0.5;entryDx=0;entryDy=0;" edge="1" parent="1" source="1XRBwdCvW_AcIVn5Fyq9-130" target="1XRBwdCvW_AcIVn5Fyq9-233">
          <mxGeometry relative="1" as="geometry" />
        </mxCell>
        <mxCell id="1XRBwdCvW_AcIVn5Fyq9-130" value="cndn[20]" style="text;html=1;align=center;verticalAlign=middle;whiteSpace=wrap;rounded=0;" vertex="1" parent="1">
          <mxGeometry x="290" y="640" width="50" height="20" as="geometry" />
        </mxCell>
        <mxCell id="1XRBwdCvW_AcIVn5Fyq9-131" style="edgeStyle=orthogonalEdgeStyle;rounded=0;orthogonalLoop=1;jettySize=auto;html=1;exitX=0.5;exitY=0;exitDx=0;exitDy=0;entryX=0;entryY=0.5;entryDx=0;entryDy=0;" edge="1" parent="1" source="1XRBwdCvW_AcIVn5Fyq9-132" target="1XRBwdCvW_AcIVn5Fyq9-231">
          <mxGeometry relative="1" as="geometry" />
        </mxCell>
        <mxCell id="1XRBwdCvW_AcIVn5Fyq9-132" value="cndn[21]" style="text;html=1;align=center;verticalAlign=middle;whiteSpace=wrap;rounded=0;" vertex="1" parent="1">
          <mxGeometry x="240" y="640" width="50" height="20" as="geometry" />
        </mxCell>
        <mxCell id="1XRBwdCvW_AcIVn5Fyq9-133" style="edgeStyle=orthogonalEdgeStyle;rounded=0;orthogonalLoop=1;jettySize=auto;html=1;exitX=0.5;exitY=0;exitDx=0;exitDy=0;entryX=0;entryY=0.5;entryDx=0;entryDy=0;" edge="1" parent="1" source="1XRBwdCvW_AcIVn5Fyq9-134" target="1XRBwdCvW_AcIVn5Fyq9-229">
          <mxGeometry relative="1" as="geometry" />
        </mxCell>
        <mxCell id="1XRBwdCvW_AcIVn5Fyq9-134" value="cndn[22]" style="text;html=1;align=center;verticalAlign=middle;whiteSpace=wrap;rounded=0;" vertex="1" parent="1">
          <mxGeometry x="190" y="640" width="50" height="20" as="geometry" />
        </mxCell>
        <mxCell id="1XRBwdCvW_AcIVn5Fyq9-135" style="edgeStyle=orthogonalEdgeStyle;rounded=0;orthogonalLoop=1;jettySize=auto;html=1;exitX=0.5;exitY=0;exitDx=0;exitDy=0;entryX=0;entryY=0.5;entryDx=0;entryDy=0;" edge="1" parent="1" source="1XRBwdCvW_AcIVn5Fyq9-136" target="1XRBwdCvW_AcIVn5Fyq9-227">
          <mxGeometry relative="1" as="geometry" />
        </mxCell>
        <mxCell id="1XRBwdCvW_AcIVn5Fyq9-136" value="cndn[23]" style="text;html=1;align=center;verticalAlign=middle;whiteSpace=wrap;rounded=0;" vertex="1" parent="1">
          <mxGeometry x="140" y="640" width="50" height="20" as="geometry" />
        </mxCell>
        <mxCell id="1XRBwdCvW_AcIVn5Fyq9-137" value="round_key[47]" style="text;html=1;align=center;verticalAlign=middle;whiteSpace=wrap;rounded=0;" vertex="1" parent="1">
          <mxGeometry x="-180" y="90" width="80" height="30" as="geometry" />
        </mxCell>
        <mxCell id="1XRBwdCvW_AcIVn5Fyq9-139" value="round_key[45]" style="text;html=1;align=center;verticalAlign=middle;whiteSpace=wrap;rounded=0;" vertex="1" parent="1">
          <mxGeometry x="-180" y="130" width="80" height="30" as="geometry" />
        </mxCell>
        <mxCell id="1XRBwdCvW_AcIVn5Fyq9-140" value="round_key[44]" style="text;html=1;align=center;verticalAlign=middle;whiteSpace=wrap;rounded=0;" vertex="1" parent="1">
          <mxGeometry x="-180" y="150" width="80" height="30" as="geometry" />
        </mxCell>
        <mxCell id="1XRBwdCvW_AcIVn5Fyq9-141" value="round_key[40]" style="text;html=1;align=center;verticalAlign=middle;whiteSpace=wrap;rounded=0;" vertex="1" parent="1">
          <mxGeometry x="-180" y="230" width="80" height="30" as="geometry" />
        </mxCell>
        <mxCell id="1XRBwdCvW_AcIVn5Fyq9-142" value="round_key[43]" style="text;html=1;align=center;verticalAlign=middle;whiteSpace=wrap;rounded=0;" vertex="1" parent="1">
          <mxGeometry x="-180" y="170" width="80" height="30" as="geometry" />
        </mxCell>
        <mxCell id="1XRBwdCvW_AcIVn5Fyq9-143" value="round_key[41]" style="text;html=1;align=center;verticalAlign=middle;whiteSpace=wrap;rounded=0;" vertex="1" parent="1">
          <mxGeometry x="-180" y="210" width="80" height="30" as="geometry" />
        </mxCell>
        <mxCell id="1XRBwdCvW_AcIVn5Fyq9-144" value="round_key[42]" style="text;html=1;align=center;verticalAlign=middle;whiteSpace=wrap;rounded=0;" vertex="1" parent="1">
          <mxGeometry x="-180" y="190" width="80" height="30" as="geometry" />
        </mxCell>
        <mxCell id="1XRBwdCvW_AcIVn5Fyq9-145" value="round_key[36]" style="text;html=1;align=center;verticalAlign=middle;whiteSpace=wrap;rounded=0;" vertex="1" parent="1">
          <mxGeometry x="-180" y="310" width="80" height="30" as="geometry" />
        </mxCell>
        <mxCell id="1XRBwdCvW_AcIVn5Fyq9-146" value="round_key[38]" style="text;html=1;align=center;verticalAlign=middle;whiteSpace=wrap;rounded=0;" vertex="1" parent="1">
          <mxGeometry x="-180" y="270" width="80" height="30" as="geometry" />
        </mxCell>
        <mxCell id="1XRBwdCvW_AcIVn5Fyq9-147" value="round_key[37]" style="text;html=1;align=center;verticalAlign=middle;whiteSpace=wrap;rounded=0;" vertex="1" parent="1">
          <mxGeometry x="-180" y="290" width="80" height="30" as="geometry" />
        </mxCell>
        <mxCell id="1XRBwdCvW_AcIVn5Fyq9-148" value="round_key[34]" style="text;html=1;align=center;verticalAlign=middle;whiteSpace=wrap;rounded=0;" vertex="1" parent="1">
          <mxGeometry x="-180" y="350" width="80" height="30" as="geometry" />
        </mxCell>
        <mxCell id="1XRBwdCvW_AcIVn5Fyq9-149" value="round_key[35]" style="text;html=1;align=center;verticalAlign=middle;whiteSpace=wrap;rounded=0;" vertex="1" parent="1">
          <mxGeometry x="-180" y="330" width="80" height="30" as="geometry" />
        </mxCell>
        <mxCell id="1XRBwdCvW_AcIVn5Fyq9-150" value="round_key[33]" style="text;html=1;align=center;verticalAlign=middle;whiteSpace=wrap;rounded=0;" vertex="1" parent="1">
          <mxGeometry x="-180" y="370" width="80" height="30" as="geometry" />
        </mxCell>
        <mxCell id="1XRBwdCvW_AcIVn5Fyq9-151" value="round_key[30]" style="text;html=1;align=center;verticalAlign=middle;whiteSpace=wrap;rounded=0;" vertex="1" parent="1">
          <mxGeometry x="-180" y="430" width="80" height="30" as="geometry" />
        </mxCell>
        <mxCell id="1XRBwdCvW_AcIVn5Fyq9-152" value="round_key[31]" style="text;html=1;align=center;verticalAlign=middle;whiteSpace=wrap;rounded=0;" vertex="1" parent="1">
          <mxGeometry x="-180" y="410" width="80" height="30" as="geometry" />
        </mxCell>
        <mxCell id="1XRBwdCvW_AcIVn5Fyq9-153" value="round_key[32]" style="text;html=1;align=center;verticalAlign=middle;whiteSpace=wrap;rounded=0;" vertex="1" parent="1">
          <mxGeometry x="-180" y="390" width="80" height="30" as="geometry" />
        </mxCell>
        <mxCell id="1XRBwdCvW_AcIVn5Fyq9-154" value="round_key[28]" style="text;html=1;align=center;verticalAlign=middle;whiteSpace=wrap;rounded=0;" vertex="1" parent="1">
          <mxGeometry x="-180" y="470" width="80" height="30" as="geometry" />
        </mxCell>
        <mxCell id="1XRBwdCvW_AcIVn5Fyq9-155" value="round_key[29]" style="text;html=1;align=center;verticalAlign=middle;whiteSpace=wrap;rounded=0;" vertex="1" parent="1">
          <mxGeometry x="-180" y="450" width="80" height="30" as="geometry" />
        </mxCell>
        <mxCell id="1XRBwdCvW_AcIVn5Fyq9-161" value="round_key[25]" style="text;html=1;align=center;verticalAlign=middle;whiteSpace=wrap;rounded=0;" vertex="1" parent="1">
          <mxGeometry x="-180" y="530" width="80" height="30" as="geometry" />
        </mxCell>
        <mxCell id="1XRBwdCvW_AcIVn5Fyq9-162" value="round_key[26]" style="text;html=1;align=center;verticalAlign=middle;whiteSpace=wrap;rounded=0;" vertex="1" parent="1">
          <mxGeometry x="-180" y="510" width="80" height="30" as="geometry" />
        </mxCell>
        <mxCell id="1XRBwdCvW_AcIVn5Fyq9-163" value="round_key[27]" style="text;html=1;align=center;verticalAlign=middle;whiteSpace=wrap;rounded=0;" vertex="1" parent="1">
          <mxGeometry x="-180" y="490" width="80" height="30" as="geometry" />
        </mxCell>
        <mxCell id="1XRBwdCvW_AcIVn5Fyq9-164" value="round_key[39]" style="text;html=1;align=center;verticalAlign=middle;whiteSpace=wrap;rounded=0;" vertex="1" parent="1">
          <mxGeometry x="-180" y="250" width="80" height="30" as="geometry" />
        </mxCell>
        <mxCell id="1XRBwdCvW_AcIVn5Fyq9-165" value="" style="triangle;whiteSpace=wrap;html=1;rotation=90;" vertex="1" parent="1">
          <mxGeometry x="5" y="50" width="20" height="30" as="geometry" />
        </mxCell>
        <mxCell id="1XRBwdCvW_AcIVn5Fyq9-297" style="edgeStyle=orthogonalEdgeStyle;rounded=0;orthogonalLoop=1;jettySize=auto;html=1;exitX=1;exitY=0.5;exitDx=0;exitDy=0;entryX=1;entryY=0.5;entryDx=0;entryDy=0;" edge="1" parent="1" source="1XRBwdCvW_AcIVn5Fyq9-167" target="1XRBwdCvW_AcIVn5Fyq9-143">
          <mxGeometry relative="1" as="geometry" />
        </mxCell>
        <mxCell id="1XRBwdCvW_AcIVn5Fyq9-167" value="" style="triangle;whiteSpace=wrap;html=1;rotation=90;" vertex="1" parent="1">
          <mxGeometry x="55" y="50" width="20" height="30" as="geometry" />
        </mxCell>
        <mxCell id="1XRBwdCvW_AcIVn5Fyq9-306" style="edgeStyle=orthogonalEdgeStyle;rounded=0;orthogonalLoop=1;jettySize=auto;html=1;exitX=1;exitY=0.5;exitDx=0;exitDy=0;entryX=1;entryY=0.5;entryDx=0;entryDy=0;" edge="1" parent="1" source="1XRBwdCvW_AcIVn5Fyq9-169" target="1XRBwdCvW_AcIVn5Fyq9-153">
          <mxGeometry relative="1" as="geometry" />
        </mxCell>
        <mxCell id="1XRBwdCvW_AcIVn5Fyq9-169" value="" style="triangle;whiteSpace=wrap;html=1;rotation=90;" vertex="1" parent="1">
          <mxGeometry x="105" y="50" width="20" height="30" as="geometry" />
        </mxCell>
        <mxCell id="1XRBwdCvW_AcIVn5Fyq9-296" style="edgeStyle=orthogonalEdgeStyle;rounded=0;orthogonalLoop=1;jettySize=auto;html=1;exitX=1;exitY=0.5;exitDx=0;exitDy=0;entryX=1;entryY=0.5;entryDx=0;entryDy=0;" edge="1" parent="1" source="1XRBwdCvW_AcIVn5Fyq9-171" target="1XRBwdCvW_AcIVn5Fyq9-144">
          <mxGeometry relative="1" as="geometry" />
        </mxCell>
        <mxCell id="1XRBwdCvW_AcIVn5Fyq9-171" value="" style="triangle;whiteSpace=wrap;html=1;rotation=90;" vertex="1" parent="1">
          <mxGeometry x="155" y="50" width="20" height="30" as="geometry" />
        </mxCell>
        <mxCell id="1XRBwdCvW_AcIVn5Fyq9-300" style="edgeStyle=orthogonalEdgeStyle;rounded=0;orthogonalLoop=1;jettySize=auto;html=1;exitX=1;exitY=0.5;exitDx=0;exitDy=0;entryX=1;entryY=0.5;entryDx=0;entryDy=0;" edge="1" parent="1" source="1XRBwdCvW_AcIVn5Fyq9-173" target="1XRBwdCvW_AcIVn5Fyq9-146">
          <mxGeometry relative="1" as="geometry" />
        </mxCell>
        <mxCell id="1XRBwdCvW_AcIVn5Fyq9-173" value="" style="triangle;whiteSpace=wrap;html=1;rotation=90;" vertex="1" parent="1">
          <mxGeometry x="205" y="50" width="20" height="30" as="geometry" />
        </mxCell>
        <mxCell id="1XRBwdCvW_AcIVn5Fyq9-310" style="edgeStyle=orthogonalEdgeStyle;rounded=0;orthogonalLoop=1;jettySize=auto;html=1;exitX=1;exitY=0.5;exitDx=0;exitDy=0;entryX=1;entryY=0.5;entryDx=0;entryDy=0;" edge="1" parent="1" source="1XRBwdCvW_AcIVn5Fyq9-175" target="1XRBwdCvW_AcIVn5Fyq9-154">
          <mxGeometry relative="1" as="geometry" />
        </mxCell>
        <mxCell id="1XRBwdCvW_AcIVn5Fyq9-175" value="" style="triangle;whiteSpace=wrap;html=1;rotation=90;" vertex="1" parent="1">
          <mxGeometry x="255" y="50" width="20" height="30" as="geometry" />
        </mxCell>
        <mxCell id="1XRBwdCvW_AcIVn5Fyq9-308" style="edgeStyle=orthogonalEdgeStyle;rounded=0;orthogonalLoop=1;jettySize=auto;html=1;exitX=1;exitY=0.5;exitDx=0;exitDy=0;entryX=1;entryY=0.5;entryDx=0;entryDy=0;" edge="1" parent="1" source="1XRBwdCvW_AcIVn5Fyq9-177" target="1XRBwdCvW_AcIVn5Fyq9-151">
          <mxGeometry relative="1" as="geometry" />
        </mxCell>
        <mxCell id="1XRBwdCvW_AcIVn5Fyq9-177" value="" style="triangle;whiteSpace=wrap;html=1;rotation=90;" vertex="1" parent="1">
          <mxGeometry x="305" y="50" width="20" height="30" as="geometry" />
        </mxCell>
        <mxCell id="1XRBwdCvW_AcIVn5Fyq9-179" value="" style="triangle;whiteSpace=wrap;html=1;rotation=90;" vertex="1" parent="1">
          <mxGeometry x="355" y="50" width="20" height="30" as="geometry" />
        </mxCell>
        <mxCell id="1XRBwdCvW_AcIVn5Fyq9-302" style="edgeStyle=orthogonalEdgeStyle;rounded=0;orthogonalLoop=1;jettySize=auto;html=1;exitX=1;exitY=0.5;exitDx=0;exitDy=0;entryX=1;entryY=0.5;entryDx=0;entryDy=0;" edge="1" parent="1" source="1XRBwdCvW_AcIVn5Fyq9-181" target="1XRBwdCvW_AcIVn5Fyq9-145">
          <mxGeometry relative="1" as="geometry" />
        </mxCell>
        <mxCell id="1XRBwdCvW_AcIVn5Fyq9-181" value="" style="triangle;whiteSpace=wrap;html=1;rotation=90;" vertex="1" parent="1">
          <mxGeometry x="405" y="50" width="20" height="30" as="geometry" />
        </mxCell>
        <mxCell id="1XRBwdCvW_AcIVn5Fyq9-293" style="edgeStyle=orthogonalEdgeStyle;rounded=0;orthogonalLoop=1;jettySize=auto;html=1;exitX=1;exitY=0.5;exitDx=0;exitDy=0;entryX=1;entryY=0.5;entryDx=0;entryDy=0;" edge="1" parent="1" source="1XRBwdCvW_AcIVn5Fyq9-183" target="1XRBwdCvW_AcIVn5Fyq9-139">
          <mxGeometry relative="1" as="geometry" />
        </mxCell>
        <mxCell id="1XRBwdCvW_AcIVn5Fyq9-183" value="" style="triangle;whiteSpace=wrap;html=1;rotation=90;" vertex="1" parent="1">
          <mxGeometry x="455" y="50" width="20" height="30" as="geometry" />
        </mxCell>
        <mxCell id="1XRBwdCvW_AcIVn5Fyq9-305" style="edgeStyle=orthogonalEdgeStyle;rounded=0;orthogonalLoop=1;jettySize=auto;html=1;exitX=1;exitY=0.5;exitDx=0;exitDy=0;entryX=1;entryY=0.5;entryDx=0;entryDy=0;" edge="1" parent="1" source="1XRBwdCvW_AcIVn5Fyq9-185" target="1XRBwdCvW_AcIVn5Fyq9-150">
          <mxGeometry relative="1" as="geometry" />
        </mxCell>
        <mxCell id="1XRBwdCvW_AcIVn5Fyq9-185" value="" style="triangle;whiteSpace=wrap;html=1;rotation=90;" vertex="1" parent="1">
          <mxGeometry x="505" y="50" width="20" height="30" as="geometry" />
        </mxCell>
        <mxCell id="1XRBwdCvW_AcIVn5Fyq9-314" style="edgeStyle=orthogonalEdgeStyle;rounded=0;orthogonalLoop=1;jettySize=auto;html=1;exitX=1;exitY=0.5;exitDx=0;exitDy=0;entryX=1;entryY=0.5;entryDx=0;entryDy=0;" edge="1" parent="1" source="1XRBwdCvW_AcIVn5Fyq9-187" target="1XRBwdCvW_AcIVn5Fyq9-161">
          <mxGeometry relative="1" as="geometry" />
        </mxCell>
        <mxCell id="1XRBwdCvW_AcIVn5Fyq9-187" value="" style="triangle;whiteSpace=wrap;html=1;rotation=90;" vertex="1" parent="1">
          <mxGeometry x="555" y="50" width="20" height="30" as="geometry" />
        </mxCell>
        <mxCell id="1XRBwdCvW_AcIVn5Fyq9-290" style="edgeStyle=orthogonalEdgeStyle;rounded=0;orthogonalLoop=1;jettySize=auto;html=1;exitX=1;exitY=0.5;exitDx=0;exitDy=0;entryX=1;entryY=0.5;entryDx=0;entryDy=0;" edge="1" parent="1" source="1XRBwdCvW_AcIVn5Fyq9-189" target="1XRBwdCvW_AcIVn5Fyq9-283">
          <mxGeometry relative="1" as="geometry" />
        </mxCell>
        <mxCell id="1XRBwdCvW_AcIVn5Fyq9-189" value="" style="triangle;whiteSpace=wrap;html=1;rotation=90;" vertex="1" parent="1">
          <mxGeometry x="605" y="50" width="20" height="30" as="geometry" />
        </mxCell>
        <mxCell id="1XRBwdCvW_AcIVn5Fyq9-299" style="edgeStyle=orthogonalEdgeStyle;rounded=0;orthogonalLoop=1;jettySize=auto;html=1;exitX=1;exitY=0.5;exitDx=0;exitDy=0;entryX=1;entryY=0.5;entryDx=0;entryDy=0;" edge="1" parent="1" source="1XRBwdCvW_AcIVn5Fyq9-191" target="1XRBwdCvW_AcIVn5Fyq9-164">
          <mxGeometry relative="1" as="geometry" />
        </mxCell>
        <mxCell id="1XRBwdCvW_AcIVn5Fyq9-191" value="" style="triangle;whiteSpace=wrap;html=1;rotation=90;" vertex="1" parent="1">
          <mxGeometry x="655" y="50" width="20" height="30" as="geometry" />
        </mxCell>
        <mxCell id="1XRBwdCvW_AcIVn5Fyq9-309" style="edgeStyle=orthogonalEdgeStyle;rounded=0;orthogonalLoop=1;jettySize=auto;html=1;exitX=1;exitY=0.5;exitDx=0;exitDy=0;entryX=1;entryY=0.5;entryDx=0;entryDy=0;" edge="1" parent="1" source="1XRBwdCvW_AcIVn5Fyq9-193" target="1XRBwdCvW_AcIVn5Fyq9-155">
          <mxGeometry relative="1" as="geometry" />
        </mxCell>
        <mxCell id="1XRBwdCvW_AcIVn5Fyq9-193" value="" style="triangle;whiteSpace=wrap;html=1;rotation=90;" vertex="1" parent="1">
          <mxGeometry x="705" y="50" width="20" height="30" as="geometry" />
        </mxCell>
        <mxCell id="1XRBwdCvW_AcIVn5Fyq9-195" value="" style="triangle;whiteSpace=wrap;html=1;rotation=90;" vertex="1" parent="1">
          <mxGeometry x="805" y="50" width="20" height="30" as="geometry" />
        </mxCell>
        <mxCell id="1XRBwdCvW_AcIVn5Fyq9-304" style="edgeStyle=orthogonalEdgeStyle;rounded=0;orthogonalLoop=1;jettySize=auto;html=1;exitX=1;exitY=0.5;exitDx=0;exitDy=0;entryX=1;entryY=0.5;entryDx=0;entryDy=0;" edge="1" parent="1" source="1XRBwdCvW_AcIVn5Fyq9-197" target="1XRBwdCvW_AcIVn5Fyq9-148">
          <mxGeometry relative="1" as="geometry" />
        </mxCell>
        <mxCell id="1XRBwdCvW_AcIVn5Fyq9-197" value="" style="triangle;whiteSpace=wrap;html=1;rotation=90;" vertex="1" parent="1">
          <mxGeometry x="855" y="50" width="20" height="30" as="geometry" />
        </mxCell>
        <mxCell id="1XRBwdCvW_AcIVn5Fyq9-312" style="edgeStyle=orthogonalEdgeStyle;rounded=0;orthogonalLoop=1;jettySize=auto;html=1;exitX=1;exitY=0.5;exitDx=0;exitDy=0;entryX=1;entryY=0.5;entryDx=0;entryDy=0;" edge="1" parent="1" source="1XRBwdCvW_AcIVn5Fyq9-199" target="1XRBwdCvW_AcIVn5Fyq9-162">
          <mxGeometry relative="1" as="geometry" />
        </mxCell>
        <mxCell id="1XRBwdCvW_AcIVn5Fyq9-199" value="" style="triangle;whiteSpace=wrap;html=1;rotation=90;" vertex="1" parent="1">
          <mxGeometry x="905" y="50" width="20" height="30" as="geometry" />
        </mxCell>
        <mxCell id="1XRBwdCvW_AcIVn5Fyq9-291" style="edgeStyle=orthogonalEdgeStyle;rounded=0;orthogonalLoop=1;jettySize=auto;html=1;exitX=1;exitY=0.5;exitDx=0;exitDy=0;entryX=1;entryY=0.5;entryDx=0;entryDy=0;" edge="1" parent="1" source="1XRBwdCvW_AcIVn5Fyq9-201" target="1XRBwdCvW_AcIVn5Fyq9-284">
          <mxGeometry relative="1" as="geometry" />
        </mxCell>
        <mxCell id="1XRBwdCvW_AcIVn5Fyq9-201" value="" style="triangle;whiteSpace=wrap;html=1;rotation=90;" vertex="1" parent="1">
          <mxGeometry x="755" y="50" width="20" height="30" as="geometry" />
        </mxCell>
        <mxCell id="1XRBwdCvW_AcIVn5Fyq9-303" style="edgeStyle=orthogonalEdgeStyle;rounded=0;orthogonalLoop=1;jettySize=auto;html=1;exitX=1;exitY=0.5;exitDx=0;exitDy=0;entryX=1;entryY=0.5;entryDx=0;entryDy=0;" edge="1" parent="1" source="1XRBwdCvW_AcIVn5Fyq9-203" target="1XRBwdCvW_AcIVn5Fyq9-149">
          <mxGeometry relative="1" as="geometry" />
        </mxCell>
        <mxCell id="1XRBwdCvW_AcIVn5Fyq9-203" value="" style="triangle;whiteSpace=wrap;html=1;rotation=90;" vertex="1" parent="1">
          <mxGeometry x="1055" y="50" width="20" height="30" as="geometry" />
        </mxCell>
        <mxCell id="1XRBwdCvW_AcIVn5Fyq9-205" value="" style="triangle;whiteSpace=wrap;html=1;rotation=90;" vertex="1" parent="1">
          <mxGeometry x="1005" y="50" width="20" height="30" as="geometry" />
        </mxCell>
        <mxCell id="1XRBwdCvW_AcIVn5Fyq9-301" style="edgeStyle=orthogonalEdgeStyle;rounded=0;orthogonalLoop=1;jettySize=auto;html=1;exitX=1;exitY=0.5;exitDx=0;exitDy=0;entryX=1;entryY=0.5;entryDx=0;entryDy=0;" edge="1" parent="1" source="1XRBwdCvW_AcIVn5Fyq9-207" target="1XRBwdCvW_AcIVn5Fyq9-147">
          <mxGeometry relative="1" as="geometry" />
        </mxCell>
        <mxCell id="1XRBwdCvW_AcIVn5Fyq9-207" value="" style="triangle;whiteSpace=wrap;html=1;rotation=90;" vertex="1" parent="1">
          <mxGeometry x="955" y="50" width="20" height="30" as="geometry" />
        </mxCell>
        <mxCell id="1XRBwdCvW_AcIVn5Fyq9-307" style="edgeStyle=orthogonalEdgeStyle;rounded=0;orthogonalLoop=1;jettySize=auto;html=1;exitX=1;exitY=0.5;exitDx=0;exitDy=0;entryX=1;entryY=0.5;entryDx=0;entryDy=0;" edge="1" parent="1" source="1XRBwdCvW_AcIVn5Fyq9-209" target="1XRBwdCvW_AcIVn5Fyq9-152">
          <mxGeometry relative="1" as="geometry" />
        </mxCell>
        <mxCell id="1XRBwdCvW_AcIVn5Fyq9-209" value="" style="triangle;whiteSpace=wrap;html=1;rotation=90;" vertex="1" parent="1">
          <mxGeometry x="1205" y="50" width="20" height="30" as="geometry" />
        </mxCell>
        <mxCell id="1XRBwdCvW_AcIVn5Fyq9-211" value="" style="triangle;whiteSpace=wrap;html=1;rotation=90;" vertex="1" parent="1">
          <mxGeometry x="1155" y="50" width="20" height="30" as="geometry" />
        </mxCell>
        <mxCell id="1XRBwdCvW_AcIVn5Fyq9-294" style="edgeStyle=orthogonalEdgeStyle;rounded=0;orthogonalLoop=1;jettySize=auto;html=1;exitX=1;exitY=0.5;exitDx=0;exitDy=0;entryX=1;entryY=0.5;entryDx=0;entryDy=0;" edge="1" parent="1" source="1XRBwdCvW_AcIVn5Fyq9-213" target="1XRBwdCvW_AcIVn5Fyq9-140">
          <mxGeometry relative="1" as="geometry" />
        </mxCell>
        <mxCell id="1XRBwdCvW_AcIVn5Fyq9-213" value="" style="triangle;whiteSpace=wrap;html=1;rotation=90;" vertex="1" parent="1">
          <mxGeometry x="1105" y="50" width="20" height="30" as="geometry" />
        </mxCell>
        <mxCell id="1XRBwdCvW_AcIVn5Fyq9-311" style="edgeStyle=orthogonalEdgeStyle;rounded=0;orthogonalLoop=1;jettySize=auto;html=1;exitX=1;exitY=0.5;exitDx=0;exitDy=0;entryX=1;entryY=0.5;entryDx=0;entryDy=0;" edge="1" parent="1" source="1XRBwdCvW_AcIVn5Fyq9-215" target="1XRBwdCvW_AcIVn5Fyq9-163">
          <mxGeometry relative="1" as="geometry" />
        </mxCell>
        <mxCell id="1XRBwdCvW_AcIVn5Fyq9-215" value="" style="triangle;whiteSpace=wrap;html=1;rotation=90;" vertex="1" parent="1">
          <mxGeometry x="1255" y="50" width="20" height="30" as="geometry" />
        </mxCell>
        <mxCell id="1XRBwdCvW_AcIVn5Fyq9-298" style="edgeStyle=orthogonalEdgeStyle;rounded=0;orthogonalLoop=1;jettySize=auto;html=1;exitX=1;exitY=0.5;exitDx=0;exitDy=0;entryX=1;entryY=0.5;entryDx=0;entryDy=0;" edge="1" parent="1" source="1XRBwdCvW_AcIVn5Fyq9-217" target="1XRBwdCvW_AcIVn5Fyq9-141">
          <mxGeometry relative="1" as="geometry" />
        </mxCell>
        <mxCell id="1XRBwdCvW_AcIVn5Fyq9-217" value="" style="triangle;whiteSpace=wrap;html=1;rotation=90;" vertex="1" parent="1">
          <mxGeometry x="1305" y="50" width="20" height="30" as="geometry" />
        </mxCell>
        <mxCell id="1XRBwdCvW_AcIVn5Fyq9-315" style="edgeStyle=orthogonalEdgeStyle;rounded=0;orthogonalLoop=1;jettySize=auto;html=1;exitX=1;exitY=0.5;exitDx=0;exitDy=0;entryX=1;entryY=0.5;entryDx=0;entryDy=0;" edge="1" parent="1" source="1XRBwdCvW_AcIVn5Fyq9-219" target="1XRBwdCvW_AcIVn5Fyq9-313">
          <mxGeometry relative="1" as="geometry" />
        </mxCell>
        <mxCell id="1XRBwdCvW_AcIVn5Fyq9-219" value="" style="triangle;whiteSpace=wrap;html=1;rotation=90;" vertex="1" parent="1">
          <mxGeometry x="5" y="50" width="20" height="30" as="geometry" />
        </mxCell>
        <mxCell id="1XRBwdCvW_AcIVn5Fyq9-323" style="edgeStyle=orthogonalEdgeStyle;rounded=0;orthogonalLoop=1;jettySize=auto;html=1;exitX=1;exitY=0.5;exitDx=0;exitDy=0;entryX=0;entryY=0.5;entryDx=0;entryDy=0;" edge="1" parent="1" source="1XRBwdCvW_AcIVn5Fyq9-221" target="1XRBwdCvW_AcIVn5Fyq9-65">
          <mxGeometry relative="1" as="geometry">
            <Array as="points">
              <mxPoint x="15" y="590" />
              <mxPoint x="30" y="590" />
              <mxPoint x="30" y="230" />
              <mxPoint x="1350" y="230" />
              <mxPoint x="1350" y="225" />
            </Array>
          </mxGeometry>
        </mxCell>
        <mxCell id="1XRBwdCvW_AcIVn5Fyq9-221" value="" style="triangle;whiteSpace=wrap;html=1;rotation=-90;" vertex="1" parent="1">
          <mxGeometry x="5" y="600" width="20" height="30" as="geometry" />
        </mxCell>
        <mxCell id="1XRBwdCvW_AcIVn5Fyq9-319" style="edgeStyle=orthogonalEdgeStyle;rounded=0;orthogonalLoop=1;jettySize=auto;html=1;exitX=1;exitY=0.5;exitDx=0;exitDy=0;entryX=0;entryY=0.5;entryDx=0;entryDy=0;" edge="1" parent="1" source="1XRBwdCvW_AcIVn5Fyq9-223" target="1XRBwdCvW_AcIVn5Fyq9-61">
          <mxGeometry relative="1" as="geometry">
            <Array as="points">
              <mxPoint x="65" y="590" />
              <mxPoint x="90" y="590" />
              <mxPoint x="90" y="180" />
              <mxPoint x="1340" y="180" />
              <mxPoint x="1340" y="145" />
            </Array>
          </mxGeometry>
        </mxCell>
        <mxCell id="1XRBwdCvW_AcIVn5Fyq9-223" value="" style="triangle;whiteSpace=wrap;html=1;rotation=-90;" vertex="1" parent="1">
          <mxGeometry x="55" y="600" width="20" height="30" as="geometry" />
        </mxCell>
        <mxCell id="1XRBwdCvW_AcIVn5Fyq9-340" style="edgeStyle=orthogonalEdgeStyle;rounded=0;orthogonalLoop=1;jettySize=auto;html=1;exitX=1;exitY=0.5;exitDx=0;exitDy=0;entryX=0;entryY=0.5;entryDx=0;entryDy=0;" edge="1" parent="1" source="1XRBwdCvW_AcIVn5Fyq9-225" target="1XRBwdCvW_AcIVn5Fyq9-77">
          <mxGeometry relative="1" as="geometry" />
        </mxCell>
        <mxCell id="1XRBwdCvW_AcIVn5Fyq9-225" value="" style="triangle;whiteSpace=wrap;html=1;rotation=-90;" vertex="1" parent="1">
          <mxGeometry x="105" y="600" width="20" height="30" as="geometry" />
        </mxCell>
        <mxCell id="1XRBwdCvW_AcIVn5Fyq9-327" style="edgeStyle=orthogonalEdgeStyle;rounded=0;orthogonalLoop=1;jettySize=auto;html=1;exitX=1;exitY=0.5;exitDx=0;exitDy=0;entryX=0;entryY=0.5;entryDx=0;entryDy=0;" edge="1" parent="1" source="1XRBwdCvW_AcIVn5Fyq9-227" target="1XRBwdCvW_AcIVn5Fyq9-68">
          <mxGeometry relative="1" as="geometry">
            <Array as="points">
              <mxPoint x="165" y="590" />
              <mxPoint x="180" y="590" />
              <mxPoint x="180" y="310" />
              <mxPoint x="1330" y="310" />
              <mxPoint x="1330" y="305" />
            </Array>
          </mxGeometry>
        </mxCell>
        <mxCell id="1XRBwdCvW_AcIVn5Fyq9-227" value="" style="triangle;whiteSpace=wrap;html=1;rotation=-90;" vertex="1" parent="1">
          <mxGeometry x="155" y="600" width="20" height="30" as="geometry" />
        </mxCell>
        <mxCell id="1XRBwdCvW_AcIVn5Fyq9-333" style="edgeStyle=orthogonalEdgeStyle;rounded=0;orthogonalLoop=1;jettySize=auto;html=1;exitX=1;exitY=0.5;exitDx=0;exitDy=0;entryX=0;entryY=0.5;entryDx=0;entryDy=0;" edge="1" parent="1" source="1XRBwdCvW_AcIVn5Fyq9-229" target="1XRBwdCvW_AcIVn5Fyq9-81">
          <mxGeometry relative="1" as="geometry">
            <Array as="points">
              <mxPoint x="215" y="440" />
              <mxPoint x="1320" y="440" />
              <mxPoint x="1320" y="425" />
            </Array>
          </mxGeometry>
        </mxCell>
        <mxCell id="1XRBwdCvW_AcIVn5Fyq9-229" value="" style="triangle;whiteSpace=wrap;html=1;rotation=-90;" vertex="1" parent="1">
          <mxGeometry x="205" y="600" width="20" height="30" as="geometry" />
        </mxCell>
        <mxCell id="1XRBwdCvW_AcIVn5Fyq9-231" value="" style="triangle;whiteSpace=wrap;html=1;rotation=-90;" vertex="1" parent="1">
          <mxGeometry x="255" y="600" width="20" height="30" as="geometry" />
        </mxCell>
        <mxCell id="1XRBwdCvW_AcIVn5Fyq9-338" style="edgeStyle=orthogonalEdgeStyle;rounded=0;orthogonalLoop=1;jettySize=auto;html=1;exitX=1;exitY=0.5;exitDx=0;exitDy=0;entryX=0;entryY=0.5;entryDx=0;entryDy=0;" edge="1" parent="1" source="1XRBwdCvW_AcIVn5Fyq9-233" target="1XRBwdCvW_AcIVn5Fyq9-76">
          <mxGeometry relative="1" as="geometry">
            <Array as="points">
              <mxPoint x="315" y="530" />
              <mxPoint x="1320" y="530" />
              <mxPoint x="1320" y="525" />
            </Array>
          </mxGeometry>
        </mxCell>
        <mxCell id="1XRBwdCvW_AcIVn5Fyq9-233" value="" style="triangle;whiteSpace=wrap;html=1;rotation=90;direction=west;" vertex="1" parent="1">
          <mxGeometry x="305" y="600" width="20" height="30" as="geometry" />
        </mxCell>
        <mxCell id="1XRBwdCvW_AcIVn5Fyq9-320" style="edgeStyle=orthogonalEdgeStyle;rounded=0;orthogonalLoop=1;jettySize=auto;html=1;exitX=1;exitY=0.5;exitDx=0;exitDy=0;entryX=0;entryY=0.5;entryDx=0;entryDy=0;" edge="1" parent="1" source="1XRBwdCvW_AcIVn5Fyq9-235" target="1XRBwdCvW_AcIVn5Fyq9-59">
          <mxGeometry relative="1" as="geometry">
            <Array as="points">
              <mxPoint x="365" y="150" />
              <mxPoint x="1350" y="150" />
              <mxPoint x="1350" y="165" />
            </Array>
          </mxGeometry>
        </mxCell>
        <mxCell id="1XRBwdCvW_AcIVn5Fyq9-235" value="" style="triangle;whiteSpace=wrap;html=1;rotation=-90;" vertex="1" parent="1">
          <mxGeometry x="355" y="600" width="20" height="30" as="geometry" />
        </mxCell>
        <mxCell id="1XRBwdCvW_AcIVn5Fyq9-237" value="" style="triangle;whiteSpace=wrap;html=1;rotation=-90;" vertex="1" parent="1">
          <mxGeometry x="405" y="600" width="20" height="30" as="geometry" />
        </mxCell>
        <mxCell id="1XRBwdCvW_AcIVn5Fyq9-331" style="edgeStyle=orthogonalEdgeStyle;rounded=0;orthogonalLoop=1;jettySize=auto;html=1;exitX=1;exitY=0.5;exitDx=0;exitDy=0;entryX=0;entryY=0.5;entryDx=0;entryDy=0;" edge="1" parent="1" source="1XRBwdCvW_AcIVn5Fyq9-239" target="1XRBwdCvW_AcIVn5Fyq9-73">
          <mxGeometry relative="1" as="geometry">
            <Array as="points">
              <mxPoint x="465" y="400" />
              <mxPoint x="1310" y="400" />
              <mxPoint x="1310" y="385" />
            </Array>
          </mxGeometry>
        </mxCell>
        <mxCell id="1XRBwdCvW_AcIVn5Fyq9-239" value="" style="triangle;whiteSpace=wrap;html=1;rotation=-90;" vertex="1" parent="1">
          <mxGeometry x="455" y="600" width="20" height="30" as="geometry" />
        </mxCell>
        <mxCell id="1XRBwdCvW_AcIVn5Fyq9-324" style="edgeStyle=orthogonalEdgeStyle;rounded=0;orthogonalLoop=1;jettySize=auto;html=1;exitX=1;exitY=0.5;exitDx=0;exitDy=0;entryX=0;entryY=0.5;entryDx=0;entryDy=0;" edge="1" parent="1" source="1XRBwdCvW_AcIVn5Fyq9-241" target="1XRBwdCvW_AcIVn5Fyq9-63">
          <mxGeometry relative="1" as="geometry">
            <Array as="points">
              <mxPoint x="515" y="590" />
              <mxPoint x="530" y="590" />
              <mxPoint x="530" y="260" />
              <mxPoint x="1330" y="260" />
              <mxPoint x="1330" y="245" />
            </Array>
          </mxGeometry>
        </mxCell>
        <mxCell id="1XRBwdCvW_AcIVn5Fyq9-241" value="" style="triangle;whiteSpace=wrap;html=1;rotation=-90;" vertex="1" parent="1">
          <mxGeometry x="505" y="600" width="20" height="30" as="geometry" />
        </mxCell>
        <mxCell id="1XRBwdCvW_AcIVn5Fyq9-316" style="edgeStyle=orthogonalEdgeStyle;rounded=0;orthogonalLoop=1;jettySize=auto;html=1;exitX=1;exitY=0.5;exitDx=0;exitDy=0;entryX=0;entryY=0.5;entryDx=0;entryDy=0;" edge="1" parent="1" source="1XRBwdCvW_AcIVn5Fyq9-243" target="1XRBwdCvW_AcIVn5Fyq9-60">
          <mxGeometry relative="1" as="geometry">
            <Array as="points">
              <mxPoint x="565" y="590" />
              <mxPoint x="590" y="590" />
              <mxPoint x="590" y="140" />
              <mxPoint x="1340" y="140" />
              <mxPoint x="1340" y="105" />
            </Array>
          </mxGeometry>
        </mxCell>
        <mxCell id="1XRBwdCvW_AcIVn5Fyq9-243" value="" style="triangle;whiteSpace=wrap;html=1;rotation=-90;" vertex="1" parent="1">
          <mxGeometry x="555" y="600" width="20" height="30" as="geometry" />
        </mxCell>
        <mxCell id="1XRBwdCvW_AcIVn5Fyq9-336" style="edgeStyle=orthogonalEdgeStyle;rounded=0;orthogonalLoop=1;jettySize=auto;html=1;exitX=1;exitY=0.5;exitDx=0;exitDy=0;entryX=0;entryY=0.5;entryDx=0;entryDy=0;" edge="1" parent="1" source="1XRBwdCvW_AcIVn5Fyq9-245" target="1XRBwdCvW_AcIVn5Fyq9-78">
          <mxGeometry relative="1" as="geometry" />
        </mxCell>
        <mxCell id="1XRBwdCvW_AcIVn5Fyq9-245" value="" style="triangle;whiteSpace=wrap;html=1;rotation=-90;" vertex="1" parent="1">
          <mxGeometry x="605" y="600" width="20" height="30" as="geometry" />
        </mxCell>
        <mxCell id="1XRBwdCvW_AcIVn5Fyq9-247" value="" style="triangle;whiteSpace=wrap;html=1;rotation=-90;" vertex="1" parent="1">
          <mxGeometry x="655" y="600" width="20" height="30" as="geometry" />
        </mxCell>
        <mxCell id="1XRBwdCvW_AcIVn5Fyq9-329" style="edgeStyle=orthogonalEdgeStyle;rounded=0;orthogonalLoop=1;jettySize=auto;html=1;exitX=1;exitY=0.5;exitDx=0;exitDy=0;entryX=0;entryY=0.5;entryDx=0;entryDy=0;" edge="1" parent="1" source="1XRBwdCvW_AcIVn5Fyq9-249" target="1XRBwdCvW_AcIVn5Fyq9-70">
          <mxGeometry relative="1" as="geometry">
            <Array as="points">
              <mxPoint x="715" y="590" />
              <mxPoint x="730" y="590" />
              <mxPoint x="730" y="360" />
              <mxPoint x="1320" y="360" />
              <mxPoint x="1320" y="345" />
            </Array>
          </mxGeometry>
        </mxCell>
        <mxCell id="1XRBwdCvW_AcIVn5Fyq9-249" value="" style="triangle;whiteSpace=wrap;html=1;rotation=-90;" vertex="1" parent="1">
          <mxGeometry x="705" y="600" width="20" height="30" as="geometry" />
        </mxCell>
        <mxCell id="1XRBwdCvW_AcIVn5Fyq9-335" style="edgeStyle=orthogonalEdgeStyle;rounded=0;orthogonalLoop=1;jettySize=auto;html=1;exitX=1;exitY=0.5;exitDx=0;exitDy=0;entryX=0;entryY=0.5;entryDx=0;entryDy=0;" edge="1" parent="1" source="1XRBwdCvW_AcIVn5Fyq9-251" target="1XRBwdCvW_AcIVn5Fyq9-79">
          <mxGeometry relative="1" as="geometry" />
        </mxCell>
        <mxCell id="1XRBwdCvW_AcIVn5Fyq9-251" value="" style="triangle;whiteSpace=wrap;html=1;rotation=-90;" vertex="1" parent="1">
          <mxGeometry x="805" y="600" width="20" height="30" as="geometry" />
        </mxCell>
        <mxCell id="1XRBwdCvW_AcIVn5Fyq9-321" style="edgeStyle=orthogonalEdgeStyle;rounded=0;orthogonalLoop=1;jettySize=auto;html=1;exitX=1;exitY=0.5;exitDx=0;exitDy=0;entryX=0;entryY=0.5;entryDx=0;entryDy=0;" edge="1" parent="1" source="1XRBwdCvW_AcIVn5Fyq9-253" target="1XRBwdCvW_AcIVn5Fyq9-82">
          <mxGeometry relative="1" as="geometry">
            <Array as="points">
              <mxPoint x="865" y="580" />
              <mxPoint x="890" y="580" />
              <mxPoint x="890" y="185" />
            </Array>
          </mxGeometry>
        </mxCell>
        <mxCell id="1XRBwdCvW_AcIVn5Fyq9-253" value="" style="triangle;whiteSpace=wrap;html=1;rotation=-90;" vertex="1" parent="1">
          <mxGeometry x="855" y="600" width="20" height="30" as="geometry" />
        </mxCell>
        <mxCell id="1XRBwdCvW_AcIVn5Fyq9-328" style="edgeStyle=orthogonalEdgeStyle;rounded=0;orthogonalLoop=1;jettySize=auto;html=1;exitX=1;exitY=0.5;exitDx=0;exitDy=0;entryX=0;entryY=0.5;entryDx=0;entryDy=0;" edge="1" parent="1" source="1XRBwdCvW_AcIVn5Fyq9-255" target="1XRBwdCvW_AcIVn5Fyq9-71">
          <mxGeometry relative="1" as="geometry">
            <Array as="points">
              <mxPoint x="915" y="590" />
              <mxPoint x="930" y="590" />
              <mxPoint x="930" y="325" />
            </Array>
          </mxGeometry>
        </mxCell>
        <mxCell id="1XRBwdCvW_AcIVn5Fyq9-255" value="" style="triangle;whiteSpace=wrap;html=1;rotation=-90;" vertex="1" parent="1">
          <mxGeometry x="905" y="600" width="20" height="30" as="geometry" />
        </mxCell>
        <mxCell id="1XRBwdCvW_AcIVn5Fyq9-326" style="edgeStyle=orthogonalEdgeStyle;rounded=0;orthogonalLoop=1;jettySize=auto;html=1;exitX=1;exitY=0.5;exitDx=0;exitDy=0;entryX=0;entryY=0.5;entryDx=0;entryDy=0;" edge="1" parent="1" source="1XRBwdCvW_AcIVn5Fyq9-257" target="1XRBwdCvW_AcIVn5Fyq9-66">
          <mxGeometry relative="1" as="geometry" />
        </mxCell>
        <mxCell id="1XRBwdCvW_AcIVn5Fyq9-257" value="" style="triangle;whiteSpace=wrap;html=1;rotation=-90;" vertex="1" parent="1">
          <mxGeometry x="755" y="600" width="20" height="30" as="geometry" />
        </mxCell>
        <mxCell id="1XRBwdCvW_AcIVn5Fyq9-325" style="edgeStyle=orthogonalEdgeStyle;rounded=0;orthogonalLoop=1;jettySize=auto;html=1;exitX=1;exitY=0.5;exitDx=0;exitDy=0;entryX=0;entryY=0.5;entryDx=0;entryDy=0;" edge="1" parent="1" source="1XRBwdCvW_AcIVn5Fyq9-259" target="1XRBwdCvW_AcIVn5Fyq9-67">
          <mxGeometry relative="1" as="geometry">
            <Array as="points">
              <mxPoint x="1065" y="580" />
              <mxPoint x="1080" y="580" />
              <mxPoint x="1080" y="265" />
            </Array>
          </mxGeometry>
        </mxCell>
        <mxCell id="1XRBwdCvW_AcIVn5Fyq9-259" value="" style="triangle;whiteSpace=wrap;html=1;rotation=-90;" vertex="1" parent="1">
          <mxGeometry x="1055" y="600" width="20" height="30" as="geometry" />
        </mxCell>
        <mxCell id="1XRBwdCvW_AcIVn5Fyq9-337" style="edgeStyle=orthogonalEdgeStyle;rounded=0;orthogonalLoop=1;jettySize=auto;html=1;exitX=1;exitY=0.5;exitDx=0;exitDy=0;entryX=0;entryY=0.5;entryDx=0;entryDy=0;" edge="1" parent="1" source="1XRBwdCvW_AcIVn5Fyq9-261" target="1XRBwdCvW_AcIVn5Fyq9-74">
          <mxGeometry relative="1" as="geometry">
            <Array as="points">
              <mxPoint x="1015" y="510" />
              <mxPoint x="1320" y="510" />
              <mxPoint x="1320" y="505" />
            </Array>
          </mxGeometry>
        </mxCell>
        <mxCell id="1XRBwdCvW_AcIVn5Fyq9-261" value="" style="triangle;whiteSpace=wrap;html=1;rotation=-90;" vertex="1" parent="1">
          <mxGeometry x="1005" y="600" width="20" height="30" as="geometry" />
        </mxCell>
        <mxCell id="1XRBwdCvW_AcIVn5Fyq9-330" style="edgeStyle=orthogonalEdgeStyle;rounded=0;orthogonalLoop=1;jettySize=auto;html=1;exitX=1;exitY=0.5;exitDx=0;exitDy=0;entryX=0;entryY=0.5;entryDx=0;entryDy=0;" edge="1" parent="1" source="1XRBwdCvW_AcIVn5Fyq9-263" target="1XRBwdCvW_AcIVn5Fyq9-69">
          <mxGeometry relative="1" as="geometry" />
        </mxCell>
        <mxCell id="1XRBwdCvW_AcIVn5Fyq9-263" value="" style="triangle;whiteSpace=wrap;html=1;rotation=-90;" vertex="1" parent="1">
          <mxGeometry x="955" y="600" width="20" height="30" as="geometry" />
        </mxCell>
        <mxCell id="1XRBwdCvW_AcIVn5Fyq9-265" value="" style="triangle;whiteSpace=wrap;html=1;rotation=-90;" vertex="1" parent="1">
          <mxGeometry x="1205" y="600" width="20" height="30" as="geometry" />
        </mxCell>
        <mxCell id="1XRBwdCvW_AcIVn5Fyq9-334" style="edgeStyle=orthogonalEdgeStyle;rounded=0;orthogonalLoop=1;jettySize=auto;html=1;exitX=1;exitY=0.5;exitDx=0;exitDy=0;entryX=0;entryY=0.5;entryDx=0;entryDy=0;" edge="1" parent="1" source="1XRBwdCvW_AcIVn5Fyq9-267" target="1XRBwdCvW_AcIVn5Fyq9-80">
          <mxGeometry relative="1" as="geometry" />
        </mxCell>
        <mxCell id="1XRBwdCvW_AcIVn5Fyq9-267" value="" style="triangle;whiteSpace=wrap;html=1;rotation=-90;" vertex="1" parent="1">
          <mxGeometry x="1155" y="600" width="20" height="30" as="geometry" />
        </mxCell>
        <mxCell id="1XRBwdCvW_AcIVn5Fyq9-317" style="edgeStyle=orthogonalEdgeStyle;rounded=0;orthogonalLoop=1;jettySize=auto;html=1;exitX=1;exitY=0.5;exitDx=0;exitDy=0;entryX=0;entryY=0.5;entryDx=0;entryDy=0;" edge="1" parent="1" source="1XRBwdCvW_AcIVn5Fyq9-269" target="1XRBwdCvW_AcIVn5Fyq9-62">
          <mxGeometry relative="1" as="geometry">
            <Array as="points">
              <mxPoint x="1115" y="580" />
              <mxPoint x="1140" y="580" />
              <mxPoint x="1140" y="125" />
            </Array>
          </mxGeometry>
        </mxCell>
        <mxCell id="1XRBwdCvW_AcIVn5Fyq9-269" value="" style="triangle;whiteSpace=wrap;html=1;rotation=-90;" vertex="1" parent="1">
          <mxGeometry x="1105" y="600" width="20" height="30" as="geometry" />
        </mxCell>
        <mxCell id="1XRBwdCvW_AcIVn5Fyq9-322" style="edgeStyle=orthogonalEdgeStyle;rounded=0;orthogonalLoop=1;jettySize=auto;html=1;exitX=1;exitY=0.5;exitDx=0;exitDy=0;entryX=0;entryY=0.5;entryDx=0;entryDy=0;" edge="1" parent="1" source="1XRBwdCvW_AcIVn5Fyq9-271" target="1XRBwdCvW_AcIVn5Fyq9-64">
          <mxGeometry relative="1" as="geometry">
            <Array as="points">
              <mxPoint x="1265" y="590" />
              <mxPoint x="1240" y="590" />
              <mxPoint x="1240" y="205" />
            </Array>
          </mxGeometry>
        </mxCell>
        <mxCell id="1XRBwdCvW_AcIVn5Fyq9-271" value="" style="triangle;whiteSpace=wrap;html=1;rotation=-90;" vertex="1" parent="1">
          <mxGeometry x="1255" y="600" width="20" height="30" as="geometry" />
        </mxCell>
        <mxCell id="1XRBwdCvW_AcIVn5Fyq9-332" style="edgeStyle=orthogonalEdgeStyle;rounded=0;orthogonalLoop=1;jettySize=auto;html=1;exitX=1;exitY=0.5;exitDx=0;exitDy=0;entryX=0;entryY=0.5;entryDx=0;entryDy=0;" edge="1" parent="1" source="1XRBwdCvW_AcIVn5Fyq9-273" target="1XRBwdCvW_AcIVn5Fyq9-72">
          <mxGeometry relative="1" as="geometry" />
        </mxCell>
        <mxCell id="1XRBwdCvW_AcIVn5Fyq9-273" value="" style="triangle;whiteSpace=wrap;html=1;rotation=-90;" vertex="1" parent="1">
          <mxGeometry x="1305" y="600" width="20" height="30" as="geometry" />
        </mxCell>
        <mxCell id="1XRBwdCvW_AcIVn5Fyq9-274" style="edgeStyle=orthogonalEdgeStyle;rounded=0;orthogonalLoop=1;jettySize=auto;html=1;exitX=0.5;exitY=1;exitDx=0;exitDy=0;entryX=0;entryY=0.5;entryDx=0;entryDy=0;" edge="1" parent="1" source="1XRBwdCvW_AcIVn5Fyq9-275" target="1XRBwdCvW_AcIVn5Fyq9-278">
          <mxGeometry relative="1" as="geometry" />
        </mxCell>
        <mxCell id="1XRBwdCvW_AcIVn5Fyq9-275" value="cndn[55]" style="text;html=1;align=center;verticalAlign=middle;whiteSpace=wrap;rounded=0;" vertex="1" parent="1">
          <mxGeometry x="-60" y="20" width="50" height="20" as="geometry" />
        </mxCell>
        <mxCell id="1XRBwdCvW_AcIVn5Fyq9-276" value="" style="triangle;whiteSpace=wrap;html=1;rotation=90;" vertex="1" parent="1">
          <mxGeometry x="-45" y="50" width="20" height="30" as="geometry" />
        </mxCell>
        <mxCell id="1XRBwdCvW_AcIVn5Fyq9-295" style="edgeStyle=orthogonalEdgeStyle;rounded=0;orthogonalLoop=1;jettySize=auto;html=1;exitX=1;exitY=0.5;exitDx=0;exitDy=0;entryX=1;entryY=0.5;entryDx=0;entryDy=0;" edge="1" parent="1" source="1XRBwdCvW_AcIVn5Fyq9-278" target="1XRBwdCvW_AcIVn5Fyq9-142">
          <mxGeometry relative="1" as="geometry" />
        </mxCell>
        <mxCell id="1XRBwdCvW_AcIVn5Fyq9-278" value="" style="triangle;whiteSpace=wrap;html=1;rotation=90;" vertex="1" parent="1">
          <mxGeometry x="-45" y="50" width="20" height="30" as="geometry" />
        </mxCell>
        <mxCell id="1XRBwdCvW_AcIVn5Fyq9-279" style="edgeStyle=orthogonalEdgeStyle;rounded=0;orthogonalLoop=1;jettySize=auto;html=1;exitX=0.5;exitY=0;exitDx=0;exitDy=0;entryX=0;entryY=0.5;entryDx=0;entryDy=0;" edge="1" parent="1" source="1XRBwdCvW_AcIVn5Fyq9-280" target="1XRBwdCvW_AcIVn5Fyq9-282">
          <mxGeometry relative="1" as="geometry" />
        </mxCell>
        <mxCell id="1XRBwdCvW_AcIVn5Fyq9-280" value="cndn[27]" style="text;html=1;align=center;verticalAlign=middle;whiteSpace=wrap;rounded=0;" vertex="1" parent="1">
          <mxGeometry x="-60" y="640" width="50" height="20" as="geometry" />
        </mxCell>
        <mxCell id="1XRBwdCvW_AcIVn5Fyq9-339" style="edgeStyle=orthogonalEdgeStyle;rounded=0;orthogonalLoop=1;jettySize=auto;html=1;exitX=1;exitY=0.5;exitDx=0;exitDy=0;entryX=0;entryY=0.5;entryDx=0;entryDy=0;" edge="1" parent="1" source="1XRBwdCvW_AcIVn5Fyq9-282" target="1XRBwdCvW_AcIVn5Fyq9-75">
          <mxGeometry relative="1" as="geometry">
            <Array as="points">
              <mxPoint x="-35" y="550" />
              <mxPoint x="1320" y="550" />
              <mxPoint x="1320" y="545" />
            </Array>
          </mxGeometry>
        </mxCell>
        <mxCell id="1XRBwdCvW_AcIVn5Fyq9-282" value="" style="triangle;whiteSpace=wrap;html=1;rotation=-90;" vertex="1" parent="1">
          <mxGeometry x="-45" y="600" width="20" height="30" as="geometry" />
        </mxCell>
        <mxCell id="1XRBwdCvW_AcIVn5Fyq9-283" value="round_key[47]" style="text;html=1;align=center;verticalAlign=middle;whiteSpace=wrap;rounded=0;" vertex="1" parent="1">
          <mxGeometry x="-180" y="90" width="80" height="30" as="geometry" />
        </mxCell>
        <mxCell id="1XRBwdCvW_AcIVn5Fyq9-284" value="round_key[46]" style="text;html=1;align=center;verticalAlign=middle;whiteSpace=wrap;rounded=0;" vertex="1" parent="1">
          <mxGeometry x="-180" y="110" width="80" height="30" as="geometry" />
        </mxCell>
        <mxCell id="1XRBwdCvW_AcIVn5Fyq9-313" value="round_key[24]" style="text;html=1;align=center;verticalAlign=middle;whiteSpace=wrap;rounded=0;" vertex="1" parent="1">
          <mxGeometry x="-180" y="550" width="80" height="30" as="geometry" />
        </mxCell>
      </root>
    </mxGraphModel>
  </diagram>
</mxfile>
